<svg width="264" height="125" viewBox="0 0 264 125" fill="none" xmlns="http://www.w3.org/2000/svg">
<g clip-path="url(#clip0)">
<path d="M0 61.205C0 56.1626 10.2491 52.5296 11.494 47.8944C12.7781 43.0791 5.75485 34.8266 8.19773 30.6064C10.6406 26.3862 21.3517 28.3044 24.8202 24.8359C28.2888 21.3673 26.3236 10.6797 30.5986 8.20552C34.8736 5.73133 43.0713 12.7937 47.8788 11.5097C52.5297 10.2647 56.1627 0.015625 61.1893 0.015625C66.216 0.015625 69.8647 10.2647 74.4999 11.5097C79.3152 12.7937 87.5755 5.77048 91.7879 8.21335C96.0003 10.6562 94.0899 21.3673 97.5584 24.8359C101.027 28.3044 111.715 26.3392 114.189 30.6142C116.663 34.8892 109.601 43.0791 110.892 47.8944C112.13 52.5453 122.379 56.1783 122.379 61.205C122.379 66.2317 112.13 69.8803 110.892 74.5155C109.601 79.323 116.624 87.5833 114.189 91.7957C111.754 96.0081 101.027 94.1447 97.5584 97.5741C94.0899 101.003 96.0551 111.73 91.7879 114.197C87.5207 116.663 79.3152 109.616 74.4999 110.9C69.849 112.145 66.216 122.394 61.1893 122.394C56.1627 122.394 52.514 112.145 47.8788 110.9C43.0713 109.616 34.811 116.639 30.5986 114.197C26.3862 111.754 28.2497 101.043 24.8202 97.5741C21.3908 94.1055 10.6719 96.0864 8.17424 91.8114C5.67655 87.5364 12.7546 79.3386 11.4706 74.5312C10.2491 69.8803 0 66.2473 0 61.205Z" fill="#7FB6E3"/>
<path d="M38.2871 43.7682C31.8511 49.249 36.0557 56.4445 41.3016 60.9936C44.524 63.7947 48.1343 66.1154 52.0205 67.8838C54.252 68.9095 57.5013 70.5459 60.0773 69.9899C62.0974 69.5515 62.4262 67.735 61.7763 65.9028C60.9072 63.3738 58.2138 62.2385 55.7788 61.7687C49.6637 60.6021 40.9414 62.4108 36.9013 67.5001C31.8903 73.8109 39.1171 82.0164 45.4044 83.7233C53.4064 85.8921 62.1365 79.2995 65.3389 72.2762C66.1218 70.5615 67.0379 67.6489 64.9944 66.3961C63.1935 65.2999 61.7998 66.8502 61.0795 68.4005C58.7306 73.6934 59.952 83.0656 64.9239 86.5577C71.5792 91.2555 80.5207 84.6002 81.2724 77.5143C81.9144 71.4698 78.438 60.6334 72.0098 58.3706C71.5542 58.1772 71.0611 58.0882 70.5666 58.1099C70.0721 58.1317 69.5888 58.2638 69.1519 58.4964C68.7151 58.7291 68.3358 59.0566 68.0418 59.4548C67.7478 59.853 67.5466 60.3118 67.4529 60.7978C66.9205 63.3034 69.332 64.9476 71.3051 65.8402C76.1752 68.0404 86.1816 69.1443 89.5171 63.734C91.4197 60.6804 89.8146 56.4367 87.9511 53.7511C86.7915 52.1425 85.2435 50.8537 83.4513 50.0048C81.6592 49.156 79.6813 48.7748 77.702 48.8967C73.5354 49.0938 69.5281 50.5579 66.2158 53.0934C64.1879 54.6593 60.9386 57.6816 61.3849 60.6099C62.2461 66.2004 70.9058 57.3293 72.0568 56.053C75.7602 51.9268 82.0632 43.5881 77.702 37.9664C72.5266 31.2954 63.2483 34.9128 59.4979 40.8007C57.344 44.2998 56.0059 48.239 55.583 52.3261C55.3325 54.6124 55.0036 58.3315 56.8279 60.1558C57.0801 60.4488 57.3925 60.684 57.7438 60.8451C58.0951 61.0063 58.4771 61.0898 58.8637 61.0898C59.2502 61.0898 59.6322 61.0063 59.9836 60.8451C60.3349 60.684 60.6473 60.4488 60.8994 60.1558C62.2696 58.5116 61.7763 55.5284 61.4083 53.6336C60.2104 47.5421 56.0293 40.3231 49.2488 39.5949C45.1303 39.1408 41.419 41.2783 38.2871 43.729C37.4572 44.3789 38.6317 45.5377 39.4538 44.8878C44.6136 40.8555 50.8852 39.5558 55.5595 44.9583C58.2451 48.0902 60.6175 53.2735 60.0851 57.4859C59.8894 58.9892 59.0438 60.2654 57.7362 58.6133C56.5774 57.1022 57.0002 54.0016 57.2038 52.2713C57.8536 46.7357 60.3357 39.6028 65.6521 36.9328C71.3599 34.0593 78.806 38.0525 77.0052 44.7626C75.6115 49.9145 71.5792 54.6515 67.6095 58.0731C67.0927 58.5194 63.9139 61.4164 63.0056 60.7587C61.6354 59.7643 65.9026 55.411 66.4898 54.9256C71.1877 51.0107 79.4872 48.4112 84.7253 52.7097C87.129 54.6828 89.7911 59.3415 88.2643 62.5047C87.1368 64.8536 84.0598 65.527 81.7343 65.7619C79.0879 66.0281 69.011 65.7149 68.9875 61.4869C68.9875 58.214 72.6362 60.5395 73.6854 61.6043C75.7054 63.7322 77.2553 66.2611 78.2344 69.0269C80.6382 75.4003 80.1371 83.2144 72.7145 85.712C65.8478 88.061 62.2774 82.3218 61.7528 76.2224C61.4495 73.9283 61.6635 71.5955 62.3792 69.3949C63.3579 66.8894 64.8613 67.829 64.2584 70.2327C62.8647 75.7761 56.4286 81.0142 51.0418 82.1965C45.1695 83.4962 34.9517 77.8902 36.8935 70.7573C38.1854 65.9968 44.7232 63.9846 48.9669 63.3582C51.5434 62.89 54.1921 63.0051 56.7183 63.6948C57.9789 64.102 61.4162 65.9811 60.3278 67.9151C58.9341 70.3658 49.9926 65.0807 48.4501 64.1646C43.9794 61.4869 38.0679 57.3998 36.7055 52.0051C35.9774 49.1002 37.2458 46.7905 39.4303 44.9192C40.2759 44.238 39.0936 43.0792 38.2871 43.7682Z" fill="#EACB4A"/>
<path d="M18.1572 40.6128L22.4871 33.2764L23.5989 33.9341L20.0442 39.9708L22.2365 41.2627L25.5485 35.6488L26.6055 36.2673L23.2935 41.8812L25.7051 43.3376L29.3302 37.1991L30.4342 37.8489L26.0418 45.295L18.1572 40.6128Z" fill="#EACB4A"/>
<path d="M30.513 32.8143L25.9482 32.9944L27.2167 31.6868L30.6226 31.5929V28.1869L31.8753 26.895V31.4519L36.6906 31.3815L35.4144 32.6969H31.8127L31.9067 36.2907L30.6226 37.6139L30.513 32.8143Z" fill="#EACB4A"/>
<path d="M39.642 29.3929C39.2041 29.4607 38.756 29.3837 38.3658 29.1737C37.9388 28.9341 37.5802 28.589 37.3244 28.1715L35.6254 25.5799L33.848 26.7387L33.2295 25.7991L34.9834 24.6481L33.8872 22.9804L34.9207 21.9312L36.197 23.873L39.4933 21.6885L40.104 22.628L36.792 24.7969L38.358 27.2319C38.5124 27.4909 38.7273 27.7085 38.9843 27.8661C39.2001 27.9981 39.4531 28.0558 39.7047 28.0306C39.9861 27.997 40.255 27.8948 40.4876 27.733C40.8398 27.5087 41.1134 27.1803 41.2706 26.7935C41.4277 26.4032 41.4606 25.9739 41.3646 25.5642L42.4921 25.6581C42.5871 26.2547 42.4998 26.866 42.2415 27.412C41.985 27.9798 41.5757 28.465 41.0592 28.8135C40.6359 29.1098 40.1517 29.3078 39.642 29.3929Z" fill="#EACB4A"/>
<path d="M46.3678 18.7521C46.7713 18.7964 47.154 18.9538 47.4718 19.2062C47.8295 19.4918 48.1162 19.8563 48.3096 20.2711L47.2839 21.0541C47.095 20.6629 46.7809 20.346 46.3913 20.1536C46.2108 20.0761 46.0163 20.0361 45.8198 20.0361C45.6232 20.0361 45.4288 20.0761 45.2482 20.1536C44.8619 20.305 44.537 20.5804 44.3243 20.9366C44.0989 21.3164 43.9976 21.7571 44.0346 22.1972C44.0595 22.7374 44.1842 23.2684 44.4026 23.7632L45.397 26.2373L44.0816 26.7619L41.6309 20.6313L42.7818 20.1693L43.4317 21.3281C43.4628 20.8121 43.6333 20.3142 43.925 19.8874C44.1975 19.5051 44.5641 19.1997 44.9894 19.0008C45.4146 18.8019 45.8841 18.7162 46.3522 18.7521H46.3678Z" fill="#EACB4A"/>
<path d="M52.639 23.5127C51.9319 23.3618 51.2795 23.0207 50.7521 22.5261C50.2639 22.06 49.9421 21.4466 49.836 20.7801C49.7259 20.1541 49.8192 19.5092 50.1022 18.9401C50.4216 18.3484 50.8916 17.8514 51.4646 17.4994C52.1318 17.0924 52.8752 16.826 53.6491 16.7165C54.4029 16.5581 55.1815 16.5581 55.9353 16.7165C56.5919 16.8783 57.1942 17.2105 57.6814 17.6795C58.1362 18.1304 58.4352 18.7146 58.5348 19.3472C58.5348 19.4412 58.5348 19.5352 58.574 19.6448C58.5817 19.7516 58.5817 19.8589 58.574 19.9658L51.5272 21.1403C51.6607 21.4723 51.9038 21.7486 52.2162 21.9232C52.6019 22.15 53.0318 22.2915 53.4768 22.3382C53.9958 22.4173 54.5238 22.4173 55.0428 22.3382C55.7201 22.2289 56.3756 22.0122 56.9845 21.6962C57.5194 21.4588 57.9873 21.093 58.3469 20.6313L59.1299 21.4691C58.8631 21.8296 58.5344 22.1398 58.159 22.3852C57.2523 22.9886 56.2272 23.3917 55.1524 23.5675C54.3197 23.7214 53.4642 23.7028 52.639 23.5127ZM56.9767 19.128C56.879 18.7789 56.6631 18.4745 56.366 18.2667C56.0251 18.036 55.6374 17.8836 55.2307 17.8205C54.754 17.7383 54.2667 17.7383 53.79 17.8205C53.3279 17.8913 52.8839 18.0508 52.4824 18.2902C52.1308 18.4822 51.826 18.7496 51.5898 19.0732C51.392 19.3576 51.2905 19.6978 51.3001 20.0441L56.9767 19.128Z" fill="#EACB4A"/>
<path d="M61.095 15.73L62.3242 15.9179V17.249C62.7087 16.8126 63.2037 16.488 63.7571 16.3094C64.3608 16.114 65.003 16.0683 65.6284 16.1763C66.2779 16.2508 66.8936 16.5057 67.4057 16.9123C67.8305 17.2678 68.1343 17.7466 68.2748 18.2825C68.6716 17.7764 69.2206 17.4114 69.8408 17.2411C70.4825 17.0472 71.1598 17.0017 71.8217 17.108C72.3997 17.1875 72.9516 17.3992 73.4346 17.7266C73.8534 18.0137 74.1798 18.4163 74.3742 18.8854C74.5561 19.3589 74.6101 19.872 74.5308 20.373L73.9201 24.2879L72.495 24.0765L73.0588 20.42C73.113 20.1656 73.1102 19.9024 73.0506 19.6493C72.9911 19.3961 72.8762 19.1593 72.7143 18.9558C72.3363 18.5349 71.8134 18.2721 71.2501 18.2198C70.7524 18.1286 70.2401 18.1554 69.7546 18.2981C69.328 18.4401 68.9577 18.7143 68.6976 19.0811C68.4178 19.4817 68.2379 19.9435 68.173 20.4278L67.6798 23.3875L66.2704 23.1682L66.8185 19.5117C66.8711 19.2573 66.8675 18.9945 66.808 18.7416C66.7485 18.4887 66.6345 18.2519 66.474 18.0476C66.0888 17.6275 65.5615 17.3653 64.9942 17.3116C64.6397 17.2355 64.2735 17.231 63.9173 17.2982C63.561 17.3654 63.2217 17.5031 62.9193 17.7031C62.639 17.9145 62.4053 18.1814 62.2329 18.4872C62.0604 18.7931 61.9529 19.1312 61.9171 19.4804L61.4708 22.4322L60.1006 22.1973L61.095 15.73Z" fill="#EACB4A"/>
<path d="M76.5823 25.7597C76.1016 25.2199 75.7769 24.5595 75.6427 23.8492C75.5211 23.1852 75.623 22.4996 75.9324 21.8996C76.2174 21.3295 76.675 20.8637 77.24 20.5686C77.8483 20.2653 78.5275 20.1327 79.2052 20.1849C79.9928 20.2373 80.7608 20.4533 81.4602 20.8191C82.1501 21.158 82.761 21.6382 83.2532 22.2285C83.7021 22.741 84.0027 23.3664 84.1223 24.0371C84.2234 24.6691 84.1191 25.3167 83.8248 25.885C83.7856 25.9633 83.7387 26.0572 83.6839 26.1512L83.5194 26.4174L77.0756 23.1915C76.9843 23.5435 77.0147 23.916 77.1617 24.2486C77.3353 24.6646 77.6034 25.0345 77.9447 25.3291C78.3297 25.6955 78.7679 26.0017 79.2444 26.2373C79.859 26.5499 80.5199 26.7614 81.2018 26.8637C81.7667 26.9739 82.35 26.9443 82.9009 26.7776L83.0418 27.9207C82.6162 28.0514 82.1711 28.1071 81.7264 28.0851C81.1983 28.0662 80.6735 27.9927 80.1605 27.8659C79.6183 27.7288 79.0931 27.5319 78.5945 27.2787C77.8278 26.914 77.1431 26.3972 76.5823 25.7597ZM82.666 24.7888C82.7885 24.4471 82.7885 24.0735 82.666 23.7318C82.5234 23.3441 82.2991 22.9916 82.0083 22.6983C81.6718 22.3504 81.2769 22.0642 80.8417 21.8527C80.4298 21.6385 79.9805 21.5055 79.5184 21.4612C79.1148 21.4122 78.7053 21.4551 78.3205 21.5864C78.0001 21.6997 77.7253 21.914 77.5375 22.1972L82.666 24.7888Z" fill="#EACB4A"/>
<path d="M88.8679 22.0955L90.011 22.9332L84.3814 30.6299L83.2383 29.7921L88.8679 22.0955Z" fill="#EACB4A"/>
<path d="M84.6702 34.3178C84.3758 33.8368 84.1292 33.3281 83.9342 32.7989C83.7883 32.405 83.691 31.9949 83.6445 31.5774L84.866 31.2486C84.9206 31.6467 85.0177 32.0378 85.1557 32.4152C85.3124 32.859 85.5172 33.2843 85.7664 33.6836C86.0285 34.1115 86.3384 34.5082 86.6903 34.8659C87.1114 35.3042 87.6106 35.66 88.1623 35.9151C88.6137 36.1269 89.1162 36.2057 89.6108 36.1422C90.0803 36.0684 90.5139 35.8461 90.8479 35.508L91.2002 35.1478C90.6234 35.3234 90.0075 35.3234 89.4307 35.1478C88.7879 34.9444 88.2031 34.5903 87.7251 34.1149C87.247 33.6396 86.8895 33.0568 86.6825 32.4152C86.514 31.8214 86.514 31.1925 86.6825 30.5987C86.8627 29.9556 87.2146 29.3737 87.7003 28.9153L90.0493 26.5664L91.0515 27.5843L88.82 29.7766C88.4772 30.1055 88.2216 30.5145 88.0762 30.9667C87.9506 31.3882 87.9506 31.8371 88.0762 32.2586C88.2154 32.7123 88.4656 33.1241 88.8043 33.4566C89.1726 33.8428 89.6335 34.1285 90.1432 34.2865C90.6184 34.4275 91.1243 34.4275 91.5995 34.2865C92.124 34.124 92.5983 33.8302 92.9776 33.4331L94.982 31.4365L95.9842 32.4465L91.8657 36.5336C91.3798 37.0378 90.7466 37.375 90.0571 37.4967C89.3414 37.6107 88.6081 37.5183 87.9431 37.2305C87.1551 36.8945 86.4438 36.4017 85.8525 35.782C85.4043 35.3402 85.0077 34.849 84.6702 34.3178Z" fill="#EACB4A"/>
<path d="M102.131 36.3301L102.844 37.5515L94.6227 42.3825L93.9102 41.161L102.131 36.3301Z" fill="#EACB4A"/>
<path d="M96.2974 45.1148C96.3041 44.4197 96.5018 43.7398 96.869 43.1495C97.233 42.5983 97.7619 42.1763 98.3802 41.9437C99 41.6952 99.6831 41.6513 100.33 41.8185C100.998 42.0113 101.599 42.3853 102.068 42.899C102.631 43.509 103.068 44.2249 103.352 45.0052C103.664 45.7819 103.823 46.6112 103.822 47.448C103.816 48.1445 103.616 48.8254 103.242 49.4133C102.874 49.9671 102.34 50.3894 101.716 50.6191C101.104 50.8658 100.428 50.9097 99.7895 50.7444C99.1173 50.556 98.512 50.1814 98.0435 49.6639C97.4768 49.0489 97.0377 48.3277 96.7516 47.542C96.4406 46.7711 96.2863 45.946 96.2974 45.1148ZM98.7403 48.6068C99.0523 48.9673 99.4551 49.2377 99.9069 49.3898C100.334 49.5069 100.787 49.4821 101.199 49.3193C101.619 49.1802 101.98 48.9045 102.225 48.5364C102.468 48.1328 102.593 47.6688 102.585 47.1975C102.588 46.615 102.476 46.0377 102.256 45.4984C102.058 44.9315 101.75 44.4097 101.348 43.9638C101.037 43.6051 100.637 43.3349 100.189 43.1808C99.7539 43.0592 99.2908 43.0867 98.8734 43.2591C98.462 43.4059 98.1081 43.6802 97.8634 44.0421C97.6243 44.4476 97.4998 44.9103 97.5032 45.381C97.5283 46.5349 97.9578 47.6434 98.7168 48.5129L98.7403 48.6068Z" fill="#EACB4A"/>
<path d="M105.568 51.0029L105.662 52.5689L100.564 55.4737L105.99 57.6269L106.084 59.2476L100.925 62.0585L106.405 64.3291L106.499 65.8559L99.7502 63.0529L99.6406 61.3069L104.808 58.5116L99.3274 56.3976L99.2256 54.6672L105.568 51.0029Z" fill="#EACB4A"/>
<path d="M98.2159 72.1588C98.6714 71.6553 99.2606 71.2915 99.9149 71.1096C100.556 70.9622 101.227 71.0051 101.845 71.2332C102.462 71.4613 103 71.8646 103.391 72.3937C103.774 72.9599 103.991 73.6215 104.018 74.3042C104.052 75.1051 103.921 75.9046 103.634 76.6531C103.426 77.2359 103.133 77.7847 102.765 78.2817C102.442 78.7043 102.041 79.0606 101.583 79.3309C101.169 79.571 100.699 79.698 100.22 79.6989L100.299 78.3208C100.772 78.3144 101.227 78.1395 101.583 77.8276C102.014 77.4375 102.336 76.9406 102.514 76.3869C102.719 75.8634 102.817 75.3045 102.804 74.7426C102.795 74.2697 102.654 73.8088 102.397 73.4116C102.142 73.046 101.777 72.7715 101.356 72.6286C100.936 72.4643 100.474 72.4423 100.04 72.566C99.5868 72.7105 99.1846 72.9823 98.8814 73.349C98.1787 74.1754 97.7783 75.2164 97.7461 76.3008C97.7376 76.7544 97.8229 77.2048 97.9966 77.624C98.1608 78.0192 98.432 78.3609 98.7796 78.6105L97.9966 79.7458C97.5232 79.3836 97.1577 78.899 96.9396 78.3443C96.697 77.7375 96.5824 77.0871 96.6029 76.4339C96.6183 75.7087 96.7559 74.9913 97.0101 74.312C97.2518 73.5156 97.6632 72.7811 98.2159 72.1588Z" fill="#EACB4A"/>
<path d="M103.235 84.1226L102.538 85.3597L94.2305 80.6619L94.9273 79.4326L103.235 84.1226Z" fill="#EACB4A"/>
<path d="M98.9288 85.5554L98.1459 86.7455L92.665 83.089L93.448 81.9067L98.9288 85.5554ZM100.056 86.3384C100.182 86.3154 100.311 86.3188 100.435 86.3485C100.559 86.3781 100.675 86.4334 100.777 86.5106C100.912 86.595 101.023 86.7139 101.098 86.8551C101.171 87.0025 101.203 87.1667 101.19 87.3307C101.178 87.4946 101.121 87.6522 101.027 87.7869C100.894 87.9994 100.684 88.1512 100.44 88.2097C100.319 88.2314 100.194 88.228 100.074 88.1997C99.9546 88.1714 99.8418 88.1189 99.7431 88.0453C99.5976 87.9554 99.4787 87.8283 99.3986 87.6773C99.3206 87.5366 99.2878 87.3753 99.3046 87.2153C99.3142 87.0464 99.3712 86.8836 99.4691 86.7455C99.6127 86.5589 99.8233 86.4354 100.056 86.401V86.3384Z" fill="#EACB4A"/>
<path d="M96.9561 89.2198L96.0478 90.0732L95.0378 89.2198C95.1478 89.7915 95.0963 90.3826 94.889 90.9267C94.6726 91.5247 94.3155 92.0618 93.8477 92.4926C93.3861 92.9579 92.8026 93.2835 92.1643 93.4322C91.6142 93.557 91.0388 93.5049 90.5201 93.2834C90.669 93.904 90.6197 94.5557 90.3791 95.1469C90.1359 95.7685 89.7528 96.3258 89.2595 96.7755C88.8415 97.183 88.3351 97.4885 87.7797 97.6681C87.2929 97.8208 86.771 97.8208 86.2842 97.6681C85.7988 97.5256 85.3606 97.2552 85.0158 96.8851L82.291 93.9724L83.3402 92.9859L85.8692 95.6871C86.0372 95.8847 86.2459 96.0437 86.4811 96.1531C86.7162 96.2626 86.9722 96.32 87.2316 96.3213C87.797 96.2829 88.3277 96.0343 88.7192 95.6245C89.094 95.2868 89.3883 94.8695 89.5805 94.4031C89.7379 93.99 89.7599 93.5375 89.6431 93.1112C89.5044 92.6435 89.2546 92.2164 88.915 91.8662L86.8714 89.6896L87.9206 88.7108L90.4496 91.4043C90.6176 91.6019 90.8263 91.7608 91.0615 91.8703C91.2966 91.9797 91.5526 92.0371 91.812 92.0385C92.3819 92.0022 92.9166 91.7502 93.3074 91.3338C93.587 91.1022 93.8181 90.8177 93.9874 90.4966C94.1567 90.1754 94.2609 89.824 94.294 89.4625C94.2995 89.1111 94.2329 88.7624 94.0982 88.4378C93.9635 88.1132 93.7637 87.8198 93.511 87.5755L91.4753 85.391L92.5088 84.428L96.9561 89.2198Z" fill="#EACB4A"/>
<path d="M80.2941 94.5911C80.725 94.5181 81.1678 94.5697 81.5703 94.7398C81.918 94.8967 82.1964 95.1752 82.3533 95.5228C82.4794 95.8201 82.5205 96.1466 82.4721 96.4659C82.4237 96.7852 82.2877 97.0848 82.0793 97.3315C81.4578 98.1066 80.6749 98.7372 79.7852 99.1793L77.2483 100.565C77.1332 100.629 77.0382 100.724 76.9743 100.839C76.953 100.89 76.942 100.945 76.942 101C76.942 101.055 76.953 101.109 76.9743 101.16C77.0259 101.255 77.1 101.336 77.19 101.396C77.28 101.456 77.3834 101.494 77.491 101.505C77.8169 101.567 78.1517 101.567 78.4776 101.505C78.8989 101.423 79.309 101.292 79.699 101.113C80.1799 100.907 80.6346 100.644 81.0536 100.33C81.449 100.022 81.8111 99.6727 82.1341 99.2889C82.399 98.9773 82.6082 98.6224 82.7526 98.2397L83.7392 98.8113C83.5745 99.2592 83.3335 99.6751 83.0267 100.041C82.6669 100.494 82.2482 100.896 81.7817 101.239C81.296 101.611 80.7709 101.928 80.2158 102.186C79.6104 102.467 78.9666 102.657 78.3053 102.75C77.7559 102.836 77.1938 102.785 76.6689 102.601C76.4391 102.514 76.2291 102.383 76.0516 102.213C75.874 102.043 75.7324 101.84 75.6354 101.614L74.4531 98.9992C74.394 98.8495 74.2788 98.7287 74.1321 98.6625C74.058 98.6302 73.978 98.6135 73.8972 98.6135C73.8164 98.6135 73.7364 98.6302 73.6623 98.6625C73.509 98.7276 73.3764 98.8331 73.2786 98.9679C73.1812 99.095 73.1215 99.2469 73.1064 99.4063L72.2451 98.8739C72.2985 98.581 72.4343 98.3094 72.6366 98.0909C72.8683 97.8237 73.1574 97.6123 73.4822 97.4724C73.746 97.3458 74.0353 97.2815 74.3278 97.2845C74.5916 97.2849 74.8498 97.3609 75.0717 97.5037C75.3033 97.6506 75.4923 97.8558 75.6197 98.0988L75.698 98.3024C75.7776 97.883 75.9399 97.4837 76.1756 97.1279C76.4567 96.7102 76.7999 96.3379 77.1935 96.0239C77.6315 95.6652 78.1162 95.3676 78.6342 95.1391C79.1587 94.8786 79.7176 94.6941 80.2941 94.5911ZM77.2327 97.3001C76.8376 97.6469 76.5293 98.0813 76.3322 98.5686C76.2525 98.7541 76.2114 98.9539 76.2114 99.1558C76.2114 99.3577 76.2525 99.5575 76.3322 99.743L76.4027 99.9075L79.2449 98.3415C79.8179 98.0487 80.3454 97.6741 80.8108 97.2297C80.9481 97.1223 81.0488 96.9752 81.0993 96.8084C81.1498 96.6417 81.1475 96.4634 81.0927 96.2979C81.0229 96.1534 80.9103 96.0338 80.7703 95.9554C80.6302 95.877 80.4695 95.8435 80.3097 95.8595C79.7773 95.8888 79.257 96.0302 78.7829 96.2745C78.213 96.5283 77.6892 96.8749 77.2327 97.3001Z" fill="#EACB4A"/>
<path d="M69.88 98.5998C70.3132 98.6897 70.7043 98.9211 70.9918 99.2575C71.3021 99.635 71.5122 100.085 71.6025 100.565L72.2602 103.595L74.3351 103.149L74.57 104.245L72.5186 104.691L72.9414 106.664L71.6025 107.267L71.1092 104.997L67.2335 105.834L66.9986 104.738L70.9135 103.901L70.2949 101.058C70.2463 100.76 70.1253 100.477 69.9426 100.236C69.7829 100.039 69.5673 99.8941 69.3241 99.8212C69.0392 99.7462 68.7398 99.7462 68.455 99.8212C68.0491 99.9042 67.6794 100.112 67.3979 100.416C67.1098 100.723 66.9238 101.111 66.8655 101.528L65.8477 101.035C65.9689 100.437 66.2693 99.8912 66.7089 99.4689C67.1761 99.031 67.7565 98.7326 68.3845 98.6076C68.8766 98.4978 69.3867 98.4951 69.88 98.5998Z" fill="#EACB4A"/>
<path d="M62.6849 99.7744C63.3538 100.054 63.9333 100.512 64.3605 101.098C64.7577 101.645 64.9616 102.309 64.9399 102.985C64.9288 103.618 64.7177 104.232 64.337 104.738C63.9168 105.277 63.3599 105.694 62.7241 105.944C61.993 106.236 61.2089 106.372 60.4221 106.344C59.6549 106.334 58.8979 106.166 58.1985 105.85C57.5726 105.575 57.0319 105.137 56.6325 104.582C56.2676 104.057 56.0835 103.428 56.1079 102.789C56.1079 102.695 56.1079 102.593 56.1079 102.483C56.1128 102.378 56.1259 102.274 56.1471 102.17L63.2956 102.319C63.23 101.961 63.0417 101.637 62.7632 101.403C62.4275 101.102 62.0289 100.88 61.5966 100.753C61.0895 100.594 60.562 100.51 60.0306 100.503C59.3418 100.485 58.6547 100.578 57.9949 100.777C57.4418 100.916 56.9294 101.185 56.4994 101.56L55.873 100.589C56.1994 100.282 56.5788 100.038 56.9927 99.8683C57.4798 99.6589 57.9858 99.4963 58.5038 99.3829C59.0626 99.2677 59.6325 99.2152 60.2029 99.2263C61.0587 99.2399 61.903 99.4263 62.6849 99.7744ZM57.6191 103.282C57.6437 103.646 57.7995 103.988 58.0576 104.245C58.349 104.537 58.7022 104.759 59.0911 104.895C59.5444 105.065 60.0243 105.152 60.5082 105.153C60.9747 105.167 61.4395 105.092 61.8785 104.934C62.2625 104.8 62.6126 104.584 62.9041 104.3C63.1535 104.059 63.316 103.743 63.3661 103.4L57.6191 103.282Z" fill="#EACB4A"/>
<path d="M48.9748 105.85C49.034 105.962 49.07 106.085 49.0808 106.212C49.0916 106.338 49.0768 106.466 49.0374 106.586C48.9943 106.741 48.9105 106.882 48.7947 106.993C48.6883 107.11 48.5492 107.192 48.3954 107.228C48.229 107.275 48.0529 107.275 47.8865 107.228C47.7658 107.203 47.6519 107.152 47.5526 107.079C47.4532 107.006 47.3707 106.913 47.3105 106.805C47.2504 106.698 47.2141 106.578 47.204 106.455C47.194 106.332 47.2104 106.209 47.2523 106.093C47.2936 105.924 47.3803 105.77 47.5028 105.647C47.6128 105.53 47.7543 105.449 47.91 105.412C48.0742 105.369 48.2468 105.369 48.4111 105.412C48.5301 105.442 48.6417 105.497 48.7387 105.572C48.8357 105.648 48.9161 105.742 48.9748 105.85ZM49.3976 104.527L48.0274 104.135L49.8439 97.8247L51.2141 98.2162L49.3976 104.527Z" fill="#EACB4A"/>
<path d="M45.2946 103.767L44.2141 103.164L44.7152 101.935C44.2026 102.214 43.6223 102.344 43.0397 102.311C42.4084 102.283 41.7932 102.103 41.2466 101.786C40.6627 101.489 40.1743 101.033 39.8373 100.471C39.5529 99.9839 39.4296 99.4194 39.485 98.8581C38.9366 99.1884 38.2988 99.339 37.6606 99.2888C36.9945 99.2409 36.3473 99.0456 35.7658 98.7172C35.2505 98.441 34.8058 98.0499 34.4661 97.574C34.1743 97.1577 34.011 96.665 33.9963 96.1569C33.99 95.6491 34.1197 95.1489 34.3721 94.7084L36.3217 91.2241L37.5823 91.9288L35.7737 95.1546C35.6348 95.3735 35.546 95.6203 35.5135 95.8775C35.481 96.1346 35.5057 96.3958 35.5858 96.6423C35.7944 97.1705 36.1941 97.6009 36.7054 97.8481C37.1386 98.1071 37.6269 98.26 38.1304 98.2944C38.57 98.3218 39.0066 98.2064 39.3753 97.9655C39.7823 97.6956 40.1137 97.3264 40.3384 96.8928L41.8026 94.2856L43.0475 94.9902L41.2545 98.2161C41.1127 98.4351 41.0215 98.683 40.9876 98.9417C40.9538 99.2004 40.9781 99.4634 41.0587 99.7116C41.2726 100.239 41.6742 100.669 42.1862 100.917C42.492 101.113 42.8335 101.246 43.1909 101.309C43.5483 101.372 43.9146 101.364 44.2689 101.285C44.6068 101.184 44.9202 101.014 45.1897 100.787C45.4591 100.559 45.6787 100.278 45.8349 99.9621L47.2912 97.3626L48.5283 98.0517L45.2946 103.767Z" fill="#EACB4A"/>
<path d="M31.1001 94.8494L30.3171 93.949L31.2801 92.8372C30.6657 92.99 30.0178 92.9321 29.4402 92.6728C28.748 92.372 28.1285 91.9261 27.6237 91.3652C27.0959 90.802 26.6907 90.1355 26.4335 89.4078C26.2181 88.7829 26.1829 88.11 26.3318 87.466C26.5039 86.8328 26.8578 86.2639 27.3496 85.8296C27.8236 85.375 28.4241 85.0747 29.0722 84.9683C29.7239 84.8722 30.3895 84.9646 30.9904 85.2345C31.6901 85.5513 32.3146 86.013 32.8226 86.5891C33.3347 87.1349 33.7198 87.7873 33.9501 88.4995C34.1495 89.0993 34.1495 89.7475 33.9501 90.3473L37.0193 87.5443L37.9276 88.5935L31.1001 94.8494ZM30.7869 86.6361C30.3689 86.4213 29.9015 86.3213 29.4323 86.3463C28.995 86.389 28.5844 86.5764 28.2657 86.8788C27.9366 87.1674 27.7157 87.5596 27.6393 87.9906C27.5664 88.4531 27.6205 88.9267 27.7959 89.3608C28.0114 89.8962 28.3277 90.3853 28.7276 90.8015C29.1117 91.2453 29.5767 91.612 30.0978 91.882C30.5175 92.0991 30.9888 92.1966 31.4602 92.1638C31.8952 92.1271 32.3044 91.9419 32.619 91.6393C32.95 91.351 33.1736 90.9591 33.2532 90.5274C33.3199 90.0609 33.2604 89.5851 33.081 89.1494C32.6338 88.078 31.8284 87.1952 30.8025 86.6517L30.7869 86.6361Z" fill="#EACB4A"/>
<path d="M28.7276 81.8598C28.822 82.2873 28.7921 82.7328 28.6415 83.1439C28.4846 83.4915 28.2061 83.7699 27.8585 83.9268C27.5683 84.068 27.2444 84.1252 26.9235 84.092C26.6025 84.0588 26.2971 83.9365 26.042 83.7389C25.2394 83.1543 24.5719 82.4039 24.0846 81.5388L22.5813 79.0724C22.5137 78.9565 22.4128 78.8637 22.2916 78.8062C22.2426 78.7832 22.1891 78.7712 22.135 78.7712C22.0808 78.7712 22.0274 78.7832 21.9784 78.8062C21.885 78.8622 21.8064 78.9398 21.7492 79.0324C21.692 79.1251 21.6578 79.2301 21.6495 79.3386C21.6071 79.6659 21.6284 79.9982 21.7122 80.3173C21.809 80.7366 21.9589 81.1419 22.1585 81.5231C22.4001 82.0067 22.6998 82.4589 23.0511 82.8698C23.3761 83.2497 23.7409 83.5936 24.1394 83.8955C24.4647 84.1457 24.83 84.339 25.2199 84.4671L24.6953 85.4771C24.239 85.3391 23.8118 85.1188 23.4347 84.8273C22.966 84.4854 22.5424 84.0855 22.1741 83.6372C21.7751 83.1565 21.4335 82.631 21.1563 82.0712C20.8452 81.4788 20.6261 80.8425 20.5064 80.1842C20.3935 79.6414 20.4177 79.079 20.5769 78.5478C20.6509 78.3214 20.7694 78.1119 20.9254 77.9318C21.0813 77.7517 21.2716 77.6044 21.4851 77.4986L24.0689 76.2224C24.2147 76.1549 24.3294 76.0346 24.3899 75.8857C24.4134 75.8078 24.4206 75.7259 24.4112 75.6451C24.4018 75.5643 24.3759 75.4863 24.3351 75.4159C24.2588 75.2696 24.1488 75.1434 24.0141 75.0479C23.8785 74.9579 23.7222 74.904 23.56 74.8913L24.0533 74.0144C24.3592 74.0451 24.6486 74.168 24.8832 74.3668C25.1544 74.5771 25.3763 74.8444 25.5331 75.1497C25.6739 75.4104 25.7541 75.6994 25.768 75.9953C25.7824 76.269 25.7171 76.541 25.5801 76.7783C25.4468 77.0159 25.2521 77.2134 25.0163 77.3499L24.8127 77.4438C25.2367 77.5014 25.6444 77.6454 26.0107 77.8666C26.4393 78.1298 26.8271 78.4542 27.1617 78.8297C27.932 79.7028 28.4705 80.7555 28.7276 81.8911V81.8598ZM25.8776 78.9315C25.5075 78.5571 25.058 78.2707 24.5622 78.0937C24.3732 78.0227 24.1719 77.9903 23.9702 77.9983C23.7685 78.0064 23.5704 78.0548 23.3877 78.1407L23.2311 78.219L24.938 80.9829C25.2519 81.5629 25.6534 82.0911 26.1281 82.5488C26.4779 82.8463 26.7911 82.9246 27.0677 82.7837C27.2064 82.7093 27.3195 82.5947 27.3921 82.455C27.4647 82.3154 27.4936 82.1571 27.4749 82.0007C27.4162 81.4709 27.2482 80.959 26.9816 80.4974C26.7015 79.9187 26.3286 79.3897 25.8776 78.9315Z" fill="#EACB4A"/>
<path d="M24.0759 71.9004C23.9629 72.5671 23.6644 73.1885 23.2147 73.6934C22.7529 74.1637 22.1635 74.4884 21.5193 74.6276C20.8751 74.7667 20.2042 74.7141 19.5895 74.4764C18.9549 74.2155 18.4106 73.7745 18.0236 73.208C17.2332 72.0297 16.856 70.6226 16.9509 69.207C16.9898 68.6767 17.1363 68.1598 17.3815 67.688C17.601 67.2587 17.9377 66.9004 18.3524 66.6545L19.0258 67.8524C18.6413 68.1151 18.3636 68.5067 18.2428 68.9564C18.0889 69.5176 18.0889 70.1099 18.2428 70.6711C18.3531 71.2299 18.5712 71.7618 18.8848 72.2371C19.1507 72.6053 19.5065 72.8991 19.9184 73.0905C20.3338 73.2615 20.7914 73.3021 21.2305 73.207C21.6696 73.1119 22.0694 72.8856 22.3769 72.5581C22.6793 72.2012 22.8771 71.7676 22.9485 71.3054C23.0403 70.7401 23.0163 70.162 22.878 69.6063C22.7546 69.1179 22.5481 68.6544 22.2673 68.2361C22.0306 67.8492 21.716 67.5159 21.3434 67.2574C20.9941 67.0146 20.5855 66.8711 20.1611 66.8424L20.2237 65.4565C20.8166 65.5094 21.3844 65.7203 21.868 66.0673C22.3987 66.4511 22.8462 66.9385 23.1834 67.5001C23.5569 68.1186 23.8217 68.7966 23.9663 69.5045C24.1729 70.2863 24.2102 71.1031 24.0759 71.9004Z" fill="#EACB4A"/>
<path d="M22.7764 61.4242C22.5911 61.8276 22.2771 62.1581 21.8838 62.3638C21.4468 62.5815 20.9623 62.6864 20.4744 62.6692H17.3425V64.791H16.215V62.6927H14.2028L13.9053 61.2441H16.2542V57.2823H17.3817V61.252H20.2865C20.5848 61.2626 20.8818 61.2064 21.1556 61.0876C21.3888 60.9783 21.5809 60.7972 21.7037 60.5708C21.8424 60.3108 21.9125 60.0198 21.9073 59.7252C21.9129 59.3078 21.7896 58.8988 21.5542 58.5541C21.3188 58.2094 20.9827 57.9457 20.5919 57.7991L21.2965 56.9143C21.8436 57.1676 22.3019 57.5795 22.6119 58.0966C22.9361 58.6488 23.0989 59.2808 23.0817 59.9209C23.0886 60.4381 22.9844 60.9507 22.7764 61.4242Z" fill="#EACB4A"/>
<path d="M21.1639 51.7231C21.0008 51.9013 20.7881 52.0267 20.5532 52.0833C20.2965 52.1496 20.027 52.1496 19.7703 52.0833C19.5175 52.0305 19.2844 51.9085 19.0969 51.731C18.9183 51.57 18.7904 51.3605 18.7289 51.1281C18.6594 50.8717 18.6594 50.6015 18.7289 50.3451C18.7901 50.1047 18.9113 49.8838 19.0812 49.7031C19.2499 49.5351 19.461 49.416 19.692 49.3586C19.9487 49.2923 20.2182 49.2923 20.4749 49.3586C20.7241 49.4192 20.9534 49.5433 21.1405 49.7187C21.314 49.8807 21.4411 50.0862 21.5085 50.3138C21.5789 50.5541 21.5789 50.8095 21.5085 51.0498C21.4599 51.3024 21.3404 51.5359 21.1639 51.7231Z" fill="#EACB4A"/>
</g>
<g clip-path="url(#clip1)">
<path d="M214.057 3.38622L216.187 4.89043C219.254 7.02014 222.881 8.19745 226.613 8.27492H229.119C232.989 8.32796 236.749 9.57152 239.888 11.8366C243.027 14.1017 245.392 17.2786 246.663 20.9354L247.515 23.4424C248.737 26.9731 250.979 30.0618 253.956 32.3173L256.036 33.8968C259.111 36.2228 261.398 39.4359 262.59 43.1029C263.782 46.7698 263.822 50.7142 262.703 54.4042L261.951 56.9113C260.849 60.4799 260.849 64.2983 261.951 67.867L262.703 70.374C263.825 74.0638 263.788 78.0093 262.596 81.6771C261.403 85.3448 259.114 88.5578 256.036 90.8815L253.956 92.4609C250.979 94.7164 248.737 97.8051 247.515 101.336L246.663 103.843C245.375 107.478 243.001 110.63 239.863 112.872C236.725 115.114 232.975 116.338 229.119 116.378H226.613C222.876 116.452 219.246 117.639 216.187 119.788L214.057 121.267C210.899 123.481 207.137 124.669 203.28 124.669C199.424 124.669 195.661 123.481 192.503 121.267L190.348 119.788C187.29 117.637 183.659 116.449 179.922 116.378H177.416C173.558 116.345 169.805 115.124 166.666 112.881C163.526 110.638 161.154 107.482 159.872 103.843L158.995 101.336C157.783 97.8001 155.539 94.7089 152.554 92.4609L150.474 90.8815C147.402 88.5531 145.117 85.3398 143.925 81.6737C142.733 78.0075 142.692 74.0643 143.807 70.374L144.584 67.867C145.662 64.2947 145.662 60.4835 144.584 56.9113L143.807 54.4042C142.692 50.714 142.733 46.7707 143.925 43.1046C145.117 39.4384 147.402 36.2252 150.474 33.8968L152.554 32.3173C155.539 30.0693 157.783 26.9781 158.995 23.4424L159.872 20.9354C161.14 17.2766 163.505 14.0977 166.644 11.8321C169.783 9.56652 173.545 8.32436 177.416 8.27492H179.922C183.655 8.20043 187.283 7.02284 190.348 4.89043L192.503 3.38622C195.665 1.18183 199.426 0 203.28 0C207.134 0 210.895 1.18183 214.057 3.38622Z" fill="#D26D4B"/>
<path d="M157.46 40.7894L161.269 34.0706L162.222 34.6221L159.089 40.1877L160.994 41.2657L163.901 36.2517L164.803 36.7781L161.896 41.7922L163.976 42.9705L167.209 37.3046L168.162 37.8311L164.277 44.6502L157.46 40.7894Z" fill="#EACB4A"/>
<path d="M167.711 32.04L162.423 32.3158L163.576 31.0372L167.786 30.8366L167.561 26.5747L168.714 25.271L168.964 30.611L174.728 30.4104L173.551 31.7141L169.039 31.8394L169.44 36.327L168.287 37.6056L167.711 32.04Z" fill="#EACB4A"/>
<path d="M173.626 22.9391L170.719 25.1453L170.067 24.2177L176.985 19.2036L177.661 20.1312L174.754 22.2371L178.689 27.6523L177.561 28.4796L173.626 22.9391Z" fill="#EACB4A"/>
<path d="M189.014 22.212C188.824 22.2499 188.628 22.2499 188.437 22.212C188.251 22.1218 188.075 22.0126 187.911 21.8861L186.683 20.783C186.475 20.6249 186.236 20.5137 185.981 20.4571C185.753 20.3825 185.508 20.3825 185.28 20.4571L182.172 21.7858L183.375 24.6188L182.072 25.1703L178.964 17.9752L184.377 15.6436C184.864 15.4162 185.394 15.2965 185.931 15.2926C186.38 15.2773 186.823 15.3904 187.209 15.6186C187.572 15.8533 187.852 16.195 188.011 16.5963C188.17 16.9321 188.222 17.308 188.162 17.6743C188.106 18.039 187.959 18.3837 187.736 18.6771C187.469 19.0163 187.137 19.2977 186.758 19.5044L187.36 19.6549C187.546 19.7542 187.723 19.8718 187.886 20.0058L188.914 20.9084C189.002 20.9921 189.103 21.0599 189.214 21.1089C189.32 21.1452 189.435 21.1452 189.54 21.1089C189.655 21.054 189.75 20.9669 189.816 20.8582C189.892 20.709 189.943 20.5479 189.966 20.3819L190.718 20.8582C190.65 21.1413 190.522 21.4063 190.342 21.6354C190.163 21.8634 189.931 22.0442 189.665 22.1619C189.457 22.236 189.232 22.2533 189.014 22.212ZM185.63 19.0783C185.918 18.9608 186.182 18.7907 186.407 18.5768C186.6 18.3916 186.738 18.1577 186.808 17.8999C186.883 17.6719 186.883 17.426 186.808 17.198C186.705 16.9583 186.53 16.7567 186.307 16.6214C186.082 16.5073 185.833 16.4472 185.58 16.4459C185.26 16.4639 184.946 16.5404 184.653 16.6715L180.768 18.3512L181.796 20.8582L185.63 19.0783Z" fill="#EACB4A"/>
<path d="M189.992 13.5881L197.511 12.134L197.711 13.2121L191.471 14.4154L191.872 16.5464L197.686 15.4433L197.887 16.4712L192.273 17.6244L192.724 19.981L199.09 18.7526L199.29 19.8306L191.596 21.3098L189.992 13.5881Z" fill="#EACB4A"/>
<path d="M200.243 11.7329L202.273 11.8583L205.456 18.6272L209.316 12.2343H211.371L210.97 20.1315H209.566L209.892 13.7887L206.183 19.956H204.679L201.596 13.4377L201.271 19.7805H199.867L200.243 11.7329Z" fill="#EACB4A"/>
<path d="M214.151 13.0364L221.67 15.2676L221.344 16.3457L215.254 14.4905L214.628 16.5964L220.292 18.3011L219.991 19.3039L214.202 17.6242L213.5 19.9056L219.69 21.7859L219.364 22.8389L211.846 20.5575L214.151 13.0364Z" fill="#EACB4A"/>
<path d="M223.65 16.2456L224.903 16.8974L221.846 22.8391L226.257 25.0954L225.731 26.1233L220.066 23.2151L223.65 16.2456Z" fill="#EACB4A"/>
<path d="M229.315 25.3211L229.09 18.9031L230.468 19.9059V24.7695L235.105 23.3405L236.483 24.3183L230.343 26.1233L228.714 28.3797L227.586 27.5523L229.315 25.3211Z" fill="#EACB4A"/>
<path d="M240.893 28.6301L241.745 29.7834L239.239 31.6887L242.823 36.452L245.329 34.5467L246.181 35.6999L239.891 40.3881L239.039 39.2599L241.871 37.1289L238.287 32.3656L235.455 34.4715L234.603 33.3433L240.893 28.6301Z" fill="#EACB4A"/>
<path d="M247.185 37.8062L247.862 39.0597L240.97 42.6949L240.293 41.4413L247.185 37.8062Z" fill="#EACB4A"/>
<path d="M242.773 45.8285C242.828 45.021 243.096 44.2426 243.55 43.5722C244.009 42.952 244.645 42.4858 245.374 42.2351C246.104 41.9844 246.892 41.9611 247.635 42.1683C248.421 42.3899 249.126 42.8339 249.665 43.4469C250.317 44.1652 250.797 45.0225 251.069 45.9539C251.288 46.5927 251.414 47.2597 251.444 47.9344C251.477 48.5365 251.4 49.1395 251.219 49.7144C251.069 50.1888 250.781 50.6077 250.392 50.9178L249.615 49.7897C249.879 49.5818 250.065 49.2899 250.141 48.9623C250.244 48.5525 250.294 48.1313 250.292 47.7088C250.26 47.2473 250.167 46.7921 250.016 46.355C249.797 45.706 249.447 45.1087 248.988 44.6001C248.594 44.1509 248.082 43.821 247.51 43.6474C246.972 43.4731 246.393 43.4731 245.856 43.6474C245.312 43.8206 244.843 44.1744 244.527 44.6502C244.197 45.1679 244.015 45.7662 244.001 46.3801C243.967 47.105 244.078 47.8294 244.327 48.5111C244.537 49.1328 244.86 49.7107 245.279 50.2158C245.631 50.6519 246.076 51.0032 246.582 51.2437C247.028 51.4046 247.515 51.4046 247.961 51.2437L246.031 45.7032L246.983 45.3773L249.364 52.1964L245.229 53.6505L244.853 52.5474L246.231 51.8956C245.783 51.7501 245.366 51.5203 245.003 51.2187C244.577 50.9034 244.211 50.5126 243.926 50.0654C243.616 49.587 243.363 49.0737 243.174 48.5361C242.854 47.6712 242.717 46.7491 242.773 45.8285Z" fill="#EACB4A"/>
<path d="M253.074 53.8508L253.199 55.2798L250.041 55.5306L250.543 61.4973L253.701 61.2215V62.6505L245.906 63.3023L245.781 61.8733L249.315 61.5725L248.813 55.6308L245.28 55.9317L245.154 54.5027L253.074 53.8508Z" fill="#EACB4A"/>
<path d="M253.35 69.3694L252.924 71.1243L245.405 75.2359L251.671 76.6899L251.37 78.0437L243.852 76.2888L244.253 74.5088L251.771 70.4224L245.481 68.9683L245.806 67.6145L253.35 69.3694Z" fill="#EACB4A"/>
<path d="M242.648 79.1468C243.175 78.6857 243.831 78.397 244.528 78.3195C245.272 78.2581 246.018 78.4057 246.683 78.7457L250.442 80.5758L249.816 81.8795L246.056 80.0494C245.591 79.7898 245.058 79.6762 244.528 79.7234C244.049 79.7782 243.597 79.9697 243.224 80.275C242.815 80.6404 242.483 81.0836 242.247 81.5786C242.011 82.0662 241.866 82.5931 241.821 83.133C241.786 83.622 241.918 84.1084 242.197 84.5119C242.474 84.962 242.886 85.313 243.375 85.5147L247.134 87.3448L246.507 88.6234L242.748 86.7933C242.072 86.4839 241.498 85.9882 241.094 85.3642C240.739 84.7572 240.565 84.0613 240.593 83.3586C240.633 82.5566 240.837 81.7715 241.194 81.0522C241.539 80.3218 242.035 79.6726 242.648 79.1468Z" fill="#EACB4A"/>
<path d="M242.397 92.4843L244.603 89.6764L245.505 90.4034L240.192 97.1223L239.289 96.3952L241.52 93.6124L236.257 89.4508L237.134 88.3477L242.397 92.4843Z" fill="#EACB4A"/>
<path d="M227.66 97.3479C227.85 97.3107 228.046 97.3107 228.237 97.3479C228.446 97.3714 228.649 97.4307 228.838 97.5234L230.317 98.2253C230.552 98.3346 230.81 98.3862 231.069 98.3758C231.318 98.3579 231.555 98.2613 231.745 98.1L234.251 95.969L232.322 93.5873L233.424 92.6848L238.437 98.7769L233.85 102.487C233.45 102.839 232.98 103.103 232.472 103.264C232.036 103.377 231.579 103.377 231.144 103.264C230.731 103.128 230.365 102.875 230.091 102.537C229.852 102.253 229.704 101.904 229.665 101.535C229.612 101.131 229.682 100.72 229.866 100.356C230.025 99.9609 230.264 99.6025 230.567 99.3034H229.866C229.656 99.2799 229.453 99.2205 229.264 99.1279L228.011 98.5262H227.685C227.589 98.4872 227.481 98.4872 227.384 98.5262C227.284 98.6101 227.214 98.7245 227.184 98.8521C227.147 99.0087 227.147 99.1718 227.184 99.3284L226.332 99.1028C226.306 98.8023 226.357 98.5 226.482 98.2253C226.594 97.9638 226.766 97.732 226.983 97.5484C227.193 97.4351 227.423 97.3668 227.66 97.3479ZM231.77 99.4538C231.515 99.6422 231.302 99.8812 231.144 100.156C231.019 100.387 230.95 100.645 230.943 100.908C230.959 101.153 231.046 101.389 231.194 101.585C231.357 101.782 231.578 101.923 231.826 101.986C232.074 102.049 232.335 102.031 232.572 101.936C232.877 101.845 233.159 101.691 233.399 101.484L236.683 98.827L235.053 96.7963L231.77 99.4538Z" fill="#EACB4A"/>
<path d="M229.365 105.571L228.137 106.298L224.177 99.5288L225.405 98.8018L229.365 105.571Z" fill="#EACB4A"/>
<path d="M222.948 107.627L226.232 106.223L226.683 107.276L218.788 110.61L218.337 109.557L221.645 108.178L219.139 101.986L220.467 101.434L222.948 107.627Z" fill="#EACB4A"/>
<path d="M217.085 110.936L215.706 111.312L213.651 103.791L215.03 103.44L217.085 110.936Z" fill="#EACB4A"/>
<path d="M210.192 104.819C210.978 105.055 211.687 105.497 212.247 106.097C212.758 106.692 213.074 107.43 213.15 108.211C213.226 108.992 213.06 109.777 212.673 110.46C212.258 111.167 211.649 111.741 210.919 112.114C210.064 112.572 209.127 112.853 208.162 112.942C207.202 113.052 206.23 112.967 205.305 112.691C204.512 112.455 203.801 112.004 203.25 111.387C202.741 110.796 202.426 110.062 202.35 109.286C202.274 108.51 202.439 107.729 202.824 107.05C203.256 106.348 203.871 105.776 204.603 105.395C205.444 104.932 206.377 104.658 207.335 104.593C208.293 104.472 209.265 104.549 210.192 104.819ZM205.43 106.323C204.89 106.603 204.438 107.028 204.127 107.551C203.833 108.032 203.71 108.597 203.776 109.156C203.819 109.716 204.048 110.246 204.428 110.66C204.839 111.113 205.369 111.443 205.956 111.613C206.637 111.827 207.356 111.886 208.062 111.788C208.761 111.729 209.442 111.533 210.067 111.212C210.602 110.925 211.052 110.501 211.37 109.983C211.659 109.492 211.782 108.92 211.721 108.354C211.678 107.793 211.449 107.264 211.069 106.849C210.65 106.405 210.124 106.077 209.54 105.897C208.864 105.709 208.158 105.649 207.46 105.721C206.748 105.775 206.056 105.98 205.43 106.323Z" fill="#EACB4A"/>
<path d="M199.791 112.891L198.012 112.615L193.375 105.395L192.398 111.763L191.02 111.537L192.223 103.791L194.027 104.067L198.638 111.312L199.616 104.944L200.994 105.145L199.791 112.891Z" fill="#EACB4A"/>
<path d="M185.054 109.532L183.5 108.905L182.698 100.131L184.077 100.682L184.277 102.663L188.914 104.518L190.392 103.239L191.796 103.816L185.054 109.532ZM184.327 103.816L184.703 108.203L188.062 105.37L184.327 103.816Z" fill="#EACB4A"/>
<path d="M178.012 106.273L176.834 105.496L180.493 99.9048L176.333 97.1972L176.985 96.2195L182.248 99.7043L178.012 106.273Z" fill="#EACB4A"/>
<path d="M168.438 99.3533L167.411 98.2001L170.067 91.4562L163.05 93.2362L162.022 92.0829L170.594 89.9771L171.646 91.1554L168.438 99.3533Z" fill="#EACB4A"/>
<path d="M159.942 88.473L159.09 87.0189L163.852 79.4978L164.604 80.8014L163.551 82.4812L166.057 86.7932H168.012L168.764 88.0969L159.942 88.473ZM162.874 83.4589L160.368 87.1442L164.754 86.9437L162.874 83.4589Z" fill="#EACB4A"/>
<path d="M156.409 81.5539L155.933 80.3004L162.198 77.9939L160.569 73.3308L161.647 72.9297L163.752 78.9466L156.409 81.5539Z" fill="#EACB4A"/>
<path d="M161.095 70.6982C160.908 71.3718 160.524 71.9742 159.993 72.4281C159.416 72.9085 158.709 73.2054 157.963 73.2805L153.827 73.8822L153.627 72.4532L157.762 71.8515C158.29 71.7944 158.792 71.5951 159.216 71.2749C159.589 70.9752 159.853 70.5612 159.968 70.0966C160.095 69.5609 160.095 69.0027 159.968 68.467C159.907 67.9203 159.737 67.3915 159.466 66.9126C159.204 66.5059 158.83 66.1837 158.389 65.985C157.897 65.7844 157.359 65.7237 156.835 65.8095L152.7 66.4112L152.499 65.0073L156.659 64.4056C157.389 64.2863 158.138 64.3821 158.815 64.6814C159.457 64.9775 159.998 65.4573 160.369 66.0602C160.791 66.7366 161.056 67.499 161.146 68.2915C161.296 69.0885 161.279 69.9082 161.095 70.6982Z" fill="#EACB4A"/>
<path d="M152.574 62.375L153.151 54.6785H154.253L153.777 60.9962L155.958 61.1717L156.409 55.2801H157.461L157.01 61.1717L159.391 61.3472L159.892 54.9041H160.97L160.394 62.726L152.574 62.375Z" fill="#EACB4A"/>
<path d="M159.692 50.4663C159.547 50.6127 159.365 50.7168 159.166 50.7672C158.953 50.8298 158.727 50.8298 158.514 50.7672C158.3 50.72 158.107 50.6058 157.963 50.4412C157.81 50.2913 157.705 50.0993 157.662 49.8897C157.601 49.6682 157.601 49.4343 157.662 49.2128C157.715 49.0013 157.828 48.8097 157.988 48.6612C158.137 48.5154 158.317 48.4042 158.514 48.3353C158.728 48.286 158.951 48.286 159.166 48.3353C159.382 48.3908 159.575 48.5138 159.717 48.6863C159.863 48.8311 159.967 49.0131 160.018 49.2128C160.068 49.4364 160.061 49.6694 159.995 49.8891C159.929 50.1087 159.807 50.3076 159.642 50.4663H159.692Z" fill="#EACB4A"/>
<path d="M184.328 36.7783C189.19 33.5191 197.01 36.7783 189.742 52.2717" stroke="#EACB4A" stroke-width="1.7" stroke-miterlimit="10" stroke-linecap="round"/>
<path d="M174.152 39.4855C181.997 36.2765 185.581 41.9925 183.425 51.2434" stroke="#EACB4A" stroke-width="1.7" stroke-miterlimit="10" stroke-linecap="round"/>
<path d="M181.019 83.9353C182.503 84.168 184.006 84.252 185.506 84.186C185.506 84.186 177.987 66.3359 206.784 66.8875C235.58 67.439 227.385 88.6234 207.736 81.2277C188.087 73.832 184.052 69.4697 184.879 65.5337C185.706 61.5977 189.491 58.0126 191.019 60.8455C192.548 63.6785 184.704 69.2942 178.638 65.8596C177.3 65.1075 176.157 64.0522 175.3 62.7783C174.443 61.5044 173.896 60.0473 173.704 58.524C173.511 57.0006 173.678 55.4533 174.191 54.0061C174.704 52.5589 175.549 51.2522 176.659 50.1907C181.671 45.1766 191.42 48.9121 204.503 55.5557C213.25 59.9932 217.335 62.3498 220.067 66.0852C222.798 69.8207 221.545 74.3835 218.763 74.6844C215.981 74.9852 214.829 70.6982 216.257 65.0072C217.661 58.8149 230.593 29.2319 230.417 60.2439C230.417 77.7931 226.407 81.1023 226.307 84.1358C228.543 83.8143 230.813 83.8143 233.049 84.1358" stroke="#EACB4A" stroke-width="1.7" stroke-miterlimit="10" stroke-linecap="round"/>
</g>
<defs>
<clipPath id="clip0">
<rect width="122.41" height="122.41" fill="white"/>
</clipPath>
<clipPath id="clip1">
<rect width="120.55" height="124.85" fill="white" transform="translate(143)"/>
</clipPath>
</defs>
</svg>
