<svg width="417" height="125" viewBox="0 0 417 125" fill="none" xmlns="http://www.w3.org/2000/svg">
<g clip-path="url(#clip0)">
<path d="M354.121 124.242C388.43 124.242 416.242 96.4298 416.242 62.1212C416.242 27.8126 388.43 0 354.121 0C319.813 0 292 27.8126 292 62.1212C292 96.4298 319.813 124.242 354.121 124.242Z" fill="#F6F4EA"/>
<path d="M391.517 77.4832C391.845 80.897 391.008 84.2638 388.385 86.6049C386.303 88.408 383.611 89.3465 380.86 89.2278C378.785 89.1339 376.554 88.2569 376.053 86.276C375.81 85.313 375.959 83.5513 376.781 82.7761C377.854 81.7739 379.568 83.5982 380.187 84.3421C383.475 88.4057 382.442 94.2389 379.498 98.2164C378.488 99.6728 377.066 100.794 375.413 101.434C373.761 102.075 371.955 102.206 370.227 101.81C366.922 100.988 364.033 98.9824 362.108 96.1728C361.353 95.199 360.92 94.0138 360.871 92.7825C360.882 92.362 361.021 91.9549 361.27 91.6159C361.616 91.2221 362.063 90.9297 362.562 90.7703C363.831 90.3162 365.209 90.1517 365.858 91.5533C366.587 93.1192 366.36 95.1236 366.007 96.7444C365.122 100.753 362.703 104.253 358.733 105.647C356.917 106.299 354.969 106.497 353.058 106.224C351.148 105.951 349.333 105.216 347.772 104.081C344.702 101.771 341.798 97.222 344.045 93.495C345.399 91.2244 349.314 88.6249 351.405 91.5219C352.318 92.8086 352.72 94.3896 352.53 95.9562C352.34 97.5227 351.573 98.9623 350.379 99.9937C347.756 102.053 343.959 102.39 340.748 102.257C337.246 102.207 333.817 101.241 330.805 99.4535C329.02 98.2543 327.551 96.6429 326.522 94.7556C325.473 92.9078 324.439 90.1909 325.739 88.1943C326.733 86.6284 329.012 85.7984 330.765 85.493C332.01 85.266 334.077 85.1955 333.897 86.965C333.553 90.9974 329.544 92.7904 325.958 92.5007C322.043 92.1875 318.254 89.8464 316.891 86.0803C315.941 83.2168 315.555 80.1961 315.756 77.1857C315.811 75.9251 313.853 75.9251 313.798 77.1857C313.537 80.7369 314.089 84.3009 315.411 87.6071C316.41 89.7871 318.092 91.5821 320.203 92.7199C324.016 94.8574 329.403 95.4212 332.981 92.4928C334.665 91.1148 336.027 88.6406 335.847 86.4169C335.667 84.1933 333.498 83.2851 331.455 83.4416C329.072 83.5865 326.801 84.4984 324.979 86.0411C322.865 87.9437 322.897 90.9974 323.797 93.4872C324.634 95.7755 325.994 97.837 327.767 99.5075C329.541 101.178 331.68 102.412 334.015 103.11C338.201 104.465 342.677 104.659 346.965 103.674C350.653 102.758 354.051 100.385 354.427 96.3451C354.675 94.0516 354.008 91.753 352.571 89.9482C351.916 89.238 351.07 88.7312 350.134 88.4883C349.198 88.2454 348.213 88.2765 347.294 88.578C343.309 89.7368 340.138 94.3563 341.492 98.4826C342.281 100.998 343.759 103.242 345.759 104.96C347.759 106.678 350.2 107.8 352.806 108.199C357.285 108.787 362.155 107.158 364.981 103.548C366.585 101.459 367.64 99.0014 368.051 96.3999C368.372 94.372 368.466 91.9213 367.268 90.1361C365.287 87.1295 359.783 88.5701 359 91.9291C358.217 95.429 361.395 98.9759 363.909 100.878C367.26 103.454 371.864 105.005 375.967 103.384C378.093 102.506 379.92 101.032 381.228 99.1403C383.056 96.5572 384.1 93.5014 384.235 90.3397C384.219 87.5772 383.217 84.9113 381.408 82.8231C380.179 81.3981 378.01 79.8635 376.092 80.8813C374.526 81.7348 373.9 84.0132 373.978 85.681C374.007 86.3832 374.177 87.0724 374.479 87.7074C374.78 88.3423 375.206 88.91 375.732 89.3766C378.081 91.4515 381.706 91.5454 384.603 90.7625C386.388 90.3087 388.044 89.4476 389.44 88.2468C390.837 87.0459 391.936 85.5379 392.652 83.841C393.418 81.8204 393.686 79.6451 393.435 77.4989C393.31 76.2539 391.352 76.2383 391.477 77.4989L391.517 77.4832Z" fill="#30312F"/>
<path d="M317.071 44.152C316.792 42.3943 316.91 40.5967 317.415 38.8904C317.977 37.3697 318.93 36.0245 320.179 34.9912C321.975 33.3336 324.336 32.4236 326.78 32.4465C330.397 32.517 334.852 34.7954 336.222 38.3345C336.516 38.91 336.569 39.5782 336.371 40.193C336.173 40.8078 335.74 41.3191 335.165 41.6151C334.632 42.0293 333.988 42.2756 333.315 42.323C332.642 42.3704 331.969 42.2167 331.384 41.8814C328.408 40.1431 327.234 35.7741 327.179 32.5796C327.124 28.837 328.933 24.883 333.145 24.7499C335.681 24.7531 338.159 25.5108 340.263 26.9265C341.429 27.6547 343.731 29.205 343.747 30.6535C343.747 30.8101 343.692 30.8806 343.379 31.1624C343.143 31.4089 342.856 31.6011 342.538 31.7255C342.221 31.8499 341.879 31.9036 341.539 31.8828C340.223 31.7105 339.3 30.3638 338.791 29.2676C338.317 28.2652 338.075 27.1693 338.082 26.0608C338.089 24.9523 338.344 23.8595 338.83 22.8629C340.396 19.7858 344.162 18.7993 347.388 19.2064C351.052 19.6762 354.536 21.9703 355.844 25.4702C356.556 27.4041 357.089 30.2072 355.061 31.5148C352.806 32.9476 350.809 30.998 350.23 28.8135C348.907 23.8338 354.998 19.6605 359.171 18.8776C361.381 18.5347 363.643 18.8056 365.709 19.6605C367.325 20.343 368.664 21.5515 369.507 23.09C370.205 24.3865 370.579 25.8329 370.597 27.3055C370.614 28.7781 370.275 30.2331 369.609 31.5461C369.359 32.0337 369.006 32.4612 368.575 32.7988C368.251 33.0119 367.885 33.1534 367.502 33.2138C366.906 33.2111 366.323 33.0408 365.819 32.7223C365.315 32.4039 364.911 31.9502 364.652 31.413C364.167 30.0663 365.435 28.5081 366.359 27.5686C367.908 26.0251 369.712 24.7615 371.691 23.8338C373.418 22.8806 375.349 22.3569 377.321 22.307C378.248 22.4059 379.137 22.7283 379.912 23.2466C380.937 23.8166 381.863 24.549 382.653 25.4154C385.26 28.3281 384.892 32.4152 383.076 35.5941C382.277 37.055 381.184 38.3347 379.865 39.3523C379.323 39.7722 378.718 40.105 378.072 40.3389C377.604 40.5073 377.1 40.5558 376.608 40.4798C376.169 40.3501 375.787 40.073 375.528 39.6952C375.268 39.3174 375.147 38.8618 375.183 38.4049C375.504 36.9095 377.203 35.7193 378.456 34.9755C382.05 32.8458 387.39 31.9141 390.733 35.0225C393.239 37.3714 393.474 40.84 393.082 44.058C392.941 45.3029 394.899 45.2951 395.04 44.058C395.462 40.2293 394.922 36.0638 391.845 33.4252C390.771 32.5396 389.53 31.8799 388.196 31.4857C386.861 31.0915 385.46 30.9709 384.078 31.1311C381.425 31.3701 378.877 32.278 376.671 33.7697C375.105 34.8581 373.242 36.5101 373.163 38.585C373.162 39.4561 373.446 40.3036 373.972 40.9979C374.498 41.6922 375.237 42.195 376.076 42.4294C377.759 42.8679 379.537 42.0928 380.883 41.114C384.344 38.5929 386.881 34.0673 386.513 29.6904C386.3 27.2223 385.148 24.93 383.295 23.2857C381.439 21.618 379.02 20.1538 376.436 20.373C373.898 20.6879 371.459 21.5508 369.287 22.902C367.004 24.107 365.037 25.8347 363.548 27.9444C362.421 29.7061 362.178 31.8593 363.697 33.4879C364.272 34.1405 365.01 34.6292 365.835 34.9042C366.66 35.1793 367.543 35.2309 368.395 35.0538C371.809 34.0673 372.756 29.4164 372.443 26.3785C372.257 24.1418 371.337 22.0294 369.826 20.3698C368.315 18.7102 366.298 17.5965 364.089 17.202C361.195 16.5772 358.178 16.8927 355.476 18.1024C352.642 19.3327 350.317 21.5 348.891 24.2409C348.239 25.5626 347.993 27.0472 348.182 28.5085C348.372 29.9698 348.989 31.3425 349.956 32.4543C351.882 34.725 355.437 34.4118 357.253 32.196C359.07 29.9801 358.451 26.5664 357.339 24.1157C356.334 21.9742 354.694 20.1944 352.641 19.0185C348.938 16.8418 343.778 16.4112 340.043 18.7601C335.463 21.6336 334.563 28.8527 338.704 32.5874C339.24 33.1272 339.91 33.5147 340.644 33.7101C341.379 33.9055 342.153 33.9018 342.886 33.6993C344.037 33.3313 345.375 32.3604 345.602 31.0998C346.025 28.8605 343.496 26.8482 341.915 25.7442C337.585 22.7063 330.632 21.0464 327.038 26.0026C324.259 29.8157 324.885 35.5079 326.85 39.5246C327.659 41.401 329.085 42.9451 330.89 43.9014C331.817 44.3017 332.836 44.436 333.835 44.2894C334.833 44.1428 335.771 43.7211 336.543 43.0715C340.678 39.9396 336.982 34.999 333.78 32.8458C331.447 31.1924 328.603 30.4217 325.754 30.6713C322.906 30.9208 320.239 32.1744 318.23 34.2082C316.936 35.4373 315.976 36.976 315.442 38.679C314.938 40.6461 314.85 42.6969 315.184 44.7001C315.356 45.9372 317.243 45.4126 317.071 44.1755V44.152Z" fill="#30312F"/>
<path d="M306.046 58.2455C305.062 57.8431 304.216 57.163 303.611 56.2881C303.044 55.3982 302.752 54.3602 302.774 53.305C302.745 52.2588 303.017 51.2263 303.556 50.3297C304.105 49.4687 304.895 48.788 305.827 48.3722C306.91 47.8902 308.087 47.6548 309.272 47.6832C310.169 47.6732 311.06 47.8244 311.903 48.1295C312.664 48.4 313.358 48.8297 313.939 49.3901C314.491 49.9259 314.912 50.5825 315.168 51.3084L313.164 51.9034C313.014 51.4188 312.745 50.9798 312.381 50.6272C312.014 50.2565 311.574 49.9659 311.089 49.7737C310.534 49.5717 309.948 49.4709 309.358 49.4762C308.549 49.4564 307.746 49.6197 307.009 49.9538C306.368 50.234 305.823 50.697 305.443 51.2849C305.076 51.8932 304.891 52.5945 304.911 53.305C304.893 54.024 305.101 54.7305 305.506 55.325C305.926 55.9213 306.511 56.3813 307.189 56.6483C307.991 56.9755 308.853 57.1327 309.718 57.1102C310.393 57.1202 311.063 57.0116 311.699 56.7892C312.268 56.6018 312.787 56.2887 313.218 55.8731C313.616 55.4974 313.906 55.0214 314.056 54.4951L316.092 54.9884C315.88 55.7779 315.458 56.4951 314.87 57.0632C314.249 57.6975 313.491 58.1821 312.655 58.4804C311.712 58.8114 310.718 58.9756 309.718 58.9659C308.458 58.9772 307.209 58.7321 306.046 58.2455Z" fill="#30312F"/>
<path d="M318.73 48.0354H320.923V58.5821H318.73V48.0354Z" fill="#30312F"/>
<path d="M333.474 58.6996C333.22 58.5846 332.995 58.4133 332.817 58.1985C332.624 57.9706 332.458 57.721 332.323 57.4547L331.446 55.6382C331.296 55.3262 331.07 55.057 330.789 54.8552C330.533 54.6727 330.226 54.5743 329.912 54.5733H326.052V58.59H323.844V48.0355H331.533C332.242 48.0178 332.946 48.1512 333.6 48.427C334.148 48.6538 334.614 49.0433 334.935 49.5431C335.256 50.0429 335.415 50.6289 335.393 51.2222C335.399 51.7086 335.28 52.1883 335.048 52.6159C334.808 53.0412 334.46 53.3952 334.038 53.6416C333.557 53.9174 333.024 54.0906 332.472 54.1505C332.685 54.2718 332.877 54.425 333.044 54.6047C333.224 54.7961 333.372 55.0156 333.482 55.2545L334.21 56.8205C334.291 56.9615 334.391 57.0906 334.508 57.2041C334.562 57.2549 334.626 57.2943 334.696 57.3198C334.766 57.3454 334.841 57.3566 334.915 57.3529C335.075 57.3441 335.228 57.2867 335.353 57.1885C335.511 57.0701 335.639 56.9175 335.729 56.7422L336.364 57.8462C336.126 58.1564 335.821 58.4081 335.471 58.5822C335.123 58.7645 334.736 58.8586 334.343 58.8562C334.046 58.8633 333.75 58.81 333.474 58.6996ZM331.125 52.9917C331.506 52.9973 331.884 52.9281 332.237 52.7881C332.536 52.6746 332.793 52.4725 332.973 52.2088C333.146 51.9464 333.236 51.6381 333.232 51.324C333.237 51.0133 333.15 50.708 332.981 50.4471C332.795 50.1826 332.533 49.9806 332.229 49.8677C331.872 49.7204 331.488 49.6485 331.102 49.6563H326.067V52.9996L331.125 52.9917Z" fill="#30312F"/>
<path d="M341.171 58.2454C340.188 57.8441 339.345 57.1636 338.744 56.288C338.17 55.4005 337.876 54.3614 337.899 53.3048C337.87 52.2586 338.142 51.2262 338.681 50.3295C339.228 49.467 340.018 48.7859 340.952 48.3721C342.033 47.8909 343.207 47.6556 344.389 47.6831C345.288 47.6736 346.182 47.8248 347.028 48.1294C347.789 48.3998 348.483 48.8296 349.064 49.39C349.614 49.9279 350.034 50.5839 350.293 51.3082L348.281 51.9033C348.135 51.4172 347.865 50.9774 347.498 50.6271C347.119 50.2483 346.662 49.957 346.159 49.7736C345.602 49.5716 345.013 49.4709 344.421 49.4761C343.612 49.4571 342.809 49.6204 342.072 49.9537C341.43 50.2327 340.885 50.6959 340.506 51.2847C340.136 51.8924 339.948 52.5936 339.966 53.3048C339.95 54.0247 340.161 54.7313 340.568 55.3249C340.987 55.9193 341.569 56.3791 342.244 56.6481C343.046 56.974 343.907 57.1313 344.773 57.1101C345.45 57.12 346.123 57.0114 346.762 56.7891C347.33 56.5998 347.848 56.2869 348.281 55.873C348.679 55.4973 348.968 55.0212 349.119 54.495L351.154 54.9882C350.94 55.7765 350.518 56.493 349.933 57.0631C349.336 57.6826 348.612 58.166 347.811 58.4803C346.865 58.8122 345.869 58.9764 344.867 58.9657C343.599 58.9787 342.342 58.7337 341.171 58.2454Z" fill="#30312F"/>
<path d="M356.501 58.3159C355.65 57.9389 354.934 57.3105 354.45 56.515C353.947 55.6597 353.695 54.6803 353.722 53.6885V48.0354H355.93V53.618C355.91 54.2846 356.07 54.9443 356.392 55.5285C356.691 56.0352 357.139 56.4371 357.676 56.6794C358.899 57.1858 360.273 57.1858 361.497 56.6794C362.034 56.4393 362.483 56.0368 362.781 55.5285C363.101 54.9468 363.258 54.2894 363.235 53.6258V48.0432H365.412V53.6963C365.437 54.6869 365.188 55.6653 364.691 56.5228C364.207 57.3124 363.498 57.9395 362.655 58.3237C360.685 59.138 358.472 59.138 356.501 58.3237V58.3159Z" fill="#30312F"/>
<path d="M368.246 48.0354H370.454V56.7577H376.718V58.5821H368.246V48.0354Z" fill="#30312F"/>
<path d="M383.569 48.0354H386.137L391.242 58.5821H388.94L387.844 56.3349H381.784L380.719 58.5821H378.37L383.569 48.0354ZM387.21 54.7455L384.861 49.7188L382.457 54.7455H387.21Z" fill="#30312F"/>
<path d="M403.143 58.6996C402.889 58.5846 402.664 58.4133 402.486 58.1985C402.293 57.9706 402.127 57.721 401.992 57.4547L401.131 55.6382C400.981 55.3262 400.755 55.057 400.473 54.8552C400.217 54.6727 399.911 54.5743 399.596 54.5733H395.736V58.59H393.528V48.0355H401.217C401.926 48.0178 402.631 48.1512 403.284 48.427C403.833 48.6538 404.299 49.0433 404.62 49.5431C404.94 50.0429 405.1 50.6289 405.077 51.2222C405.083 51.7086 404.965 52.1883 404.733 52.6159C404.493 53.0412 404.144 53.3952 403.723 53.6416C403.241 53.9174 402.708 54.0906 402.157 54.1505C402.368 54.2738 402.56 54.4268 402.728 54.6047C402.909 54.7961 403.057 55.0156 403.167 55.2545L403.895 56.8205C403.976 56.9615 404.076 57.0906 404.192 57.2041C404.247 57.2549 404.311 57.2943 404.381 57.3198C404.451 57.3454 404.525 57.3566 404.6 57.3529C404.759 57.3441 404.912 57.2867 405.038 57.1885C405.196 57.0701 405.324 56.9175 405.414 56.7422L406.048 57.8462C405.811 58.1564 405.505 58.4081 405.155 58.5822C404.808 58.7645 404.421 58.8586 404.028 58.8562C403.725 58.8654 403.424 58.8121 403.143 58.6996ZM400.794 52.9917C401.177 52.9981 401.558 52.929 401.914 52.7881C402.213 52.6746 402.47 52.4725 402.65 52.2088C402.823 51.9464 402.913 51.6382 402.908 51.324C402.914 51.0133 402.826 50.708 402.658 50.4471C402.473 50.1838 402.214 49.982 401.914 49.8677C401.554 49.7198 401.168 49.6478 400.779 49.6563H395.752V52.9996L400.794 52.9917Z" fill="#30312F"/>
<path d="M301.999 63.0295H311.974V64.6973H304.144V67.4064H311.418V68.9175H304.137V71.9085H312.115V73.5762H301.999V63.0295Z" fill="#30312F"/>
<path d="M317.541 73.2317C316.553 72.8358 315.705 72.1543 315.106 71.2743C314.537 70.3878 314.245 69.3519 314.268 68.299C314.237 67.2525 314.509 66.2193 315.051 65.3237C315.6 64.4627 316.389 63.782 317.322 63.3662C318.404 62.8815 319.581 62.6435 320.767 62.6694C321.663 62.6594 322.554 62.8105 323.398 63.1157C324.159 63.3889 324.853 63.8213 325.433 64.3841C325.99 64.9214 326.413 65.5808 326.67 66.3102L324.666 66.9053C324.519 66.4198 324.249 65.9803 323.883 65.629C323.5 65.2519 323.041 64.9609 322.536 64.7756C321.982 64.5736 321.396 64.4728 320.806 64.4781C319.997 64.4583 319.194 64.6216 318.457 64.9557C317.816 65.2359 317.271 65.6988 316.891 66.2867C316.527 66.8966 316.342 67.5968 316.359 68.3068C316.343 69.0256 316.551 69.7315 316.954 70.3269C317.376 70.9209 317.96 71.3804 318.637 71.6501C319.44 71.973 320.301 72.1302 321.166 72.1121C321.842 72.1175 322.515 72.009 323.155 71.791C323.72 71.6017 324.236 71.2887 324.666 70.875C325.064 70.4992 325.353 70.0232 325.504 69.4969L327.539 69.9824C327.33 70.775 326.908 71.4953 326.318 72.0651C325.686 72.6847 324.924 73.1555 324.087 73.4431C323.143 73.7741 322.15 73.9384 321.15 73.9286C319.912 73.9428 318.685 73.7057 317.541 73.2317Z" fill="#30312F"/>
<path d="M333.396 73.2239C332.409 72.8 331.558 72.1118 330.937 71.2352C330.347 70.3713 330.041 69.3451 330.06 68.299C330.043 67.2509 330.349 66.2228 330.937 65.355C331.556 64.4718 332.411 63.78 333.404 63.3584C335.73 62.4085 338.336 62.4085 340.662 63.3584C341.655 63.78 342.509 64.4718 343.128 65.355C343.705 66.2256 344.013 67.2468 344.013 68.2912C344.013 69.3355 343.705 70.3567 343.128 71.2273C342.507 72.1086 341.653 72.7998 340.662 73.2239C338.335 74.1845 335.723 74.1845 333.396 73.2239ZM339.519 71.658C340.198 71.3699 340.784 70.8981 341.21 70.2956C341.608 69.7085 341.82 69.0158 341.82 68.3068C341.82 67.5979 341.608 66.9051 341.21 66.3181C340.783 65.7129 340.198 65.2363 339.519 64.9401C338.739 64.5995 337.895 64.4312 337.045 64.4468C336.186 64.4306 335.335 64.5988 334.547 64.9401C333.866 65.2361 333.278 65.7126 332.848 66.3181C332.45 66.9051 332.238 67.5979 332.238 68.3068C332.238 69.0158 332.45 69.7085 332.848 70.2956C333.277 70.8984 333.865 71.37 334.547 71.658C335.336 71.9927 336.187 72.1581 337.045 72.1434C337.895 72.1551 338.738 71.987 339.519 71.6502V71.658Z" fill="#30312F"/>
<path d="M346.793 63.0295H349.549L356.361 71.2978V63.0295H358.483V73.5762H355.719L348.899 65.261V73.5762H346.793V63.0295Z" fill="#30312F"/>
<path d="M364.621 73.2239C363.634 72.8 362.783 72.1118 362.162 71.2352C361.572 70.3713 361.265 69.3451 361.285 68.299C361.268 67.2509 361.574 66.2228 362.162 65.355C362.781 64.4718 363.636 63.78 364.628 63.3584C366.955 62.4085 369.56 62.4085 371.887 63.3584C372.877 63.7843 373.73 64.4752 374.353 65.355C374.93 66.2256 375.237 67.2468 375.237 68.2912C375.237 69.3355 374.93 70.3567 374.353 71.2273C373.728 72.1052 372.875 72.7956 371.887 73.2239C369.56 74.1845 366.947 74.1845 364.621 73.2239ZM370.736 71.658C371.419 71.3737 372.009 70.9013 372.435 70.2956C372.832 69.7085 373.045 69.0158 373.045 68.3068C373.045 67.5979 372.832 66.9051 372.435 66.3181C372.006 65.7109 371.418 65.2341 370.736 64.9401C369.959 64.5997 369.117 64.4314 368.269 64.4468C367.411 64.4306 366.559 64.5988 365.772 64.9401C365.089 65.2341 364.501 65.7109 364.072 66.3181C363.675 66.9051 363.462 67.5979 363.462 68.3068C363.462 69.0158 363.675 69.7085 364.072 70.2956C364.499 70.9013 365.088 71.3737 365.772 71.658C366.561 71.9927 367.412 72.1581 368.269 72.1434C369.117 72.1552 369.958 71.9871 370.736 71.6502V71.658Z" fill="#30312F"/>
<path d="M378.018 63.0295H381.056L385.338 71.5092L389.582 63.0295H392.659V73.5762H390.537V65.4411L386.482 73.5762H384.274L380.186 65.4568V73.5762H378.065L378.018 63.0295Z" fill="#30312F"/>
<path d="M399.894 69.8414L394.906 63.0295H397.435L400.99 68.0719L404.474 63.0295H407.019L402.07 69.8414V73.5762H399.878L399.894 69.8414Z" fill="#30312F"/>
</g>
<g clip-path="url(#clip1)">
<path d="M219.04 3.39149L221.241 4.88908C224.293 7.0241 227.909 8.20452 231.632 8.28065H234.252C238.107 8.35397 241.846 9.60996 244.964 11.8787C248.083 14.1475 250.429 17.3196 251.687 20.9661L252.545 23.4327C253.788 26.9371 256.03 30 258.996 32.242L261.197 33.8277C264.264 36.1571 266.543 39.3728 267.724 43.0399C268.905 46.707 268.932 50.6485 267.801 54.3313L267.053 56.842C265.938 60.4279 265.938 64.2678 267.053 67.8536L267.801 70.3643C268.934 74.0505 268.908 77.9956 267.727 81.6665C266.546 85.3374 264.266 88.557 261.197 90.89L258.996 92.4537C256.035 94.7002 253.794 97.7616 252.545 101.263L251.687 103.752C250.428 107.396 248.081 110.565 244.962 112.83C241.844 115.095 238.105 116.346 234.252 116.415H231.632C227.877 116.545 224.246 117.786 221.197 119.983L218.996 121.48C215.838 123.694 212.076 124.881 208.22 124.881C204.364 124.881 200.602 123.694 197.444 121.48L195.242 119.983C192.181 117.851 188.559 116.671 184.83 116.591H182.21C178.357 116.523 174.618 115.271 171.499 113.006C168.38 110.741 166.033 107.572 164.775 103.928L163.916 101.439C162.676 97.9335 160.433 94.87 157.466 92.6298L155.375 91.0662C152.305 88.7332 150.026 85.5136 148.845 81.8427C147.664 78.1718 147.638 74.2266 148.77 70.5405L149.519 68.0298C150.633 64.444 150.633 60.6041 149.519 57.0182L148.77 54.5075C147.639 50.8246 147.666 46.8831 148.847 43.2161C150.029 39.549 152.307 36.3333 155.375 34.0039L157.466 32.4182C160.438 30.1826 162.682 27.1176 163.916 23.6089L164.775 21.1423C166.032 17.4958 168.379 14.3237 171.497 12.0549C174.615 9.78615 178.355 8.53016 182.21 8.45685H184.83C188.56 8.38771 192.186 7.20684 195.242 5.06526L197.444 3.56767C200.591 1.32742 204.351 0.109045 208.214 0.0775314C212.077 0.0460175 215.856 1.20289 219.04 3.39149Z" fill="#F6F4EA"/>
<path d="M171.731 86.1771C171.755 86.4981 171.686 86.8192 171.533 87.1021C171.37 87.3861 171.134 87.6217 170.85 87.7848C170.577 87.9715 170.257 88.0782 169.926 88.0931C169.608 88.0986 169.295 88.0146 169.023 87.8509C168.727 87.6867 168.483 87.4425 168.319 87.1461C168.125 86.8678 168.018 86.5383 168.011 86.1991C167.989 85.8854 168.058 85.5721 168.209 85.2962C168.368 85.0109 168.595 84.7689 168.869 84.5914C169.15 84.4268 169.469 84.3401 169.794 84.3401C170.119 84.3401 170.438 84.4268 170.718 84.5914C171.004 84.7694 171.245 85.0105 171.423 85.2962C171.587 85.5644 171.692 85.8648 171.731 86.1771Z" fill="#30312F"/>
<path d="M160.724 73.5577L160.548 71.9059L162.397 71.4875C161.628 71.1394 161 70.5419 160.614 69.7917C160.125 68.9007 159.825 67.9186 159.733 66.9067C159.607 65.8657 159.689 64.8102 159.975 63.8014C160.209 62.9511 160.683 62.1864 161.34 61.599C161.997 61.0697 162.793 60.7405 163.632 60.6507C164.471 60.5609 165.319 60.7143 166.073 61.0925C166.831 61.5437 167.455 62.1902 167.878 62.9645C168.365 63.8782 168.658 64.8831 168.737 65.9156C168.858 66.923 168.76 67.9446 168.451 68.9108C168.229 69.7229 167.741 70.4367 167.064 70.9369L172.369 70.3863L172.567 72.3024L160.724 73.5577ZM166.623 64.374C166.348 63.8143 165.94 63.3305 165.435 62.9645C164.96 62.6536 164.391 62.5209 163.828 62.5901C163.259 62.6342 162.727 62.8849 162.331 63.2948C161.889 63.7354 161.584 64.2934 161.45 64.9025C161.115 66.4399 161.277 68.0441 161.912 69.4834C162.182 70.053 162.591 70.5454 163.101 70.9149C163.576 71.2258 164.145 71.3585 164.708 71.2893C165.277 71.2452 165.809 70.9945 166.205 70.5845C166.647 70.1357 166.952 69.5705 167.086 68.9548C167.421 67.4175 167.259 65.8133 166.623 64.374Z" fill="#30312F"/>
<path d="M156.167 58.1856L156.365 56.2695L168.539 57.4808L168.341 59.3968L156.167 58.1856Z" fill="#30312F"/>
<path d="M168.693 54.8378C168.385 55.3386 167.942 55.7429 167.416 56.0051C166.955 56.1813 166.446 56.1813 165.985 56.0051C165.587 55.8625 165.238 55.6081 164.98 55.2721C164.722 54.9362 164.567 54.5331 164.532 54.1111C164.349 52.7769 164.447 51.4192 164.818 50.1249L165.765 46.3148C165.821 46.143 165.821 45.9581 165.765 45.7863C165.739 45.7221 165.7 45.6638 165.65 45.6146C165.601 45.5655 165.543 45.5265 165.479 45.5C165.339 45.4713 165.194 45.4762 165.056 45.5145C164.918 45.5528 164.792 45.6233 164.686 45.7202C164.337 45.9988 164.045 46.3429 163.828 46.7333C163.524 47.2286 163.288 47.7617 163.123 48.319C162.893 49.0339 162.745 49.7728 162.683 50.5213C162.616 51.195 162.616 51.8737 162.683 52.5474C162.738 53.0972 162.887 53.6335 163.123 54.1331L161.714 54.6176C161.446 54.0391 161.267 53.4225 161.186 52.7897C161.086 52.0147 161.086 51.2302 161.186 50.4552C161.276 49.626 161.446 48.8074 161.692 48.0106C161.97 47.14 162.362 46.3105 162.859 45.544C163.261 44.9197 163.804 44.399 164.444 44.0244C164.721 43.862 165.03 43.7621 165.349 43.7316C165.669 43.7012 165.991 43.741 166.293 43.8482L169.794 44.9934C169.984 45.0706 170.197 45.0706 170.388 44.9934C170.581 44.8823 170.723 44.7007 170.784 44.4869C170.839 44.2701 170.839 44.043 170.784 43.8262C170.764 43.615 170.68 43.4151 170.542 43.2536L171.797 42.8572C172.038 43.1857 172.182 43.5745 172.215 43.9804C172.252 44.45 172.192 44.9223 172.039 45.3678C171.926 45.7503 171.73 46.1035 171.467 46.4029C171.241 46.6714 170.943 46.87 170.608 46.9755C170.261 47.0614 169.899 47.0614 169.552 46.9755H169.287C169.612 47.4407 169.844 47.9641 169.97 48.5172C170.123 49.1734 170.175 49.8493 170.124 50.5213C170.068 51.2727 169.913 52.0133 169.662 52.7236C169.43 53.4666 169.104 54.177 168.693 54.8378ZM168.847 49.31C168.859 48.6214 168.724 47.9382 168.451 47.3059C168.35 47.0636 168.2 46.8448 168.01 46.6629C167.821 46.4811 167.596 46.3401 167.35 46.2488H167.13L166.117 50.6534C165.864 51.5037 165.738 52.3869 165.743 53.2742C165.743 53.8908 165.985 54.2432 166.359 54.3754C166.561 54.4384 166.778 54.4337 166.976 54.3622C167.175 54.2906 167.345 54.156 167.46 53.9789C167.915 53.4161 168.245 52.763 168.429 52.0629C168.723 51.1757 168.865 50.2447 168.847 49.31Z" fill="#30312F"/>
<path d="M171.82 30.5463C172.495 30.1891 173.262 30.0433 174.021 30.1279C174.821 30.2146 175.583 30.5193 176.222 31.0088L179.877 33.7617L178.71 35.3033L175.254 32.7046C174.951 32.4538 174.597 32.2726 174.217 32.1736C173.836 32.0747 173.439 32.0605 173.052 32.132C172.154 32.3441 171.368 32.8865 170.851 33.6516C170.388 34.2426 170.058 34.926 169.882 35.6557C169.747 36.2795 169.793 36.9291 170.014 37.5277C170.244 38.1507 170.659 38.6886 171.203 39.0693L174.175 41.2717L173.03 42.8133L166.294 37.7479L167.329 36.3825L168.936 37.3075C168.63 36.5449 168.568 35.706 168.76 34.9069C168.975 33.954 169.396 33.0597 169.992 32.2862C170.463 31.576 171.087 30.9813 171.82 30.5463Z" fill="#30312F"/>
<path d="M182.1 31.6033C181.17 31.8561 180.189 31.8561 179.26 31.6033C178.422 31.3742 177.685 30.87 177.168 30.1718C176.707 29.5305 176.461 28.7596 176.464 27.9695C176.463 27.0161 176.738 26.0828 177.256 25.2827C177.834 24.3766 178.581 23.5913 179.458 22.9702C180.293 22.3494 181.244 21.9003 182.254 21.6488C183.126 21.4162 184.045 21.4162 184.917 21.6488C185.71 21.8847 186.401 22.3813 186.877 23.0583L187.097 23.3666C187.178 23.479 187.252 23.5967 187.317 23.719L179.458 29.4451C179.811 29.7575 180.263 29.9367 180.735 29.9516C181.337 29.9821 181.939 29.8767 182.496 29.6433C183.174 29.4025 183.812 29.061 184.389 28.6302C185.149 28.0862 185.818 27.4245 186.37 26.6701C186.859 26.068 187.199 25.3586 187.361 24.5999L188.792 25.0845C188.679 25.6687 188.463 26.228 188.153 26.7362C187.779 27.3519 187.352 27.934 186.877 28.476C186.365 29.0462 185.797 29.5627 185.182 30.0177C184.269 30.7453 183.222 31.2842 182.1 31.6033ZM184.851 23.8511C184.541 23.4993 184.108 23.2789 183.641 23.2345C183.091 23.1764 182.536 23.2364 182.011 23.4107C181.387 23.6265 180.8 23.9386 180.272 24.3357C179.759 24.6982 179.319 25.1539 178.974 25.6791C178.656 26.1185 178.438 26.6221 178.335 27.1546C178.267 27.5978 178.337 28.0512 178.533 28.454L184.851 23.8511Z" fill="#30312F"/>
<path d="M193.569 25.0624C192.981 25.0356 192.417 24.8193 191.962 24.4458C191.496 24.0251 191.14 23.4955 190.928 22.9041L189.541 19.1602L186.855 20.1732L186.349 18.8078L189.012 17.8167L188.11 15.3942L189.805 14.271L190.862 17.068L195.903 15.196L196.409 16.5614L191.346 18.4334L192.645 21.9351C192.779 22.2982 192.989 22.6285 193.261 22.9041C193.513 23.1276 193.829 23.2663 194.164 23.3005C194.561 23.3491 194.965 23.2882 195.33 23.1244C195.857 22.9393 196.317 22.6021 196.651 22.1553C196.984 21.7093 197.169 21.1702 197.18 20.6137L198.633 21.0321C198.556 21.8394 198.242 22.6059 197.73 23.2345C197.142 23.9108 196.381 24.4135 195.529 24.688C194.906 24.9393 194.241 25.0665 193.569 25.0624Z" fill="#30312F"/>
<path d="M199.205 18.0371L205.567 17.2002L205.765 18.6537L199.403 19.4906L199.205 18.0371Z" fill="#30312F"/>
<path d="M209.618 15.2842L206.778 15.064V13.6545L209.64 13.8747V13.3682C209.677 12.6802 209.905 12.0163 210.301 11.4522C210.674 10.9247 211.206 10.531 211.82 10.329C212.528 10.0929 213.278 10.0103 214.021 10.0867C214.795 10.1253 215.548 10.344 216.222 10.7254C216.796 11.0533 217.25 11.5545 217.521 12.1569L216.266 12.9718C216.086 12.5811 215.795 12.2519 215.43 12.0248C215.024 11.7748 214.563 11.6309 214.087 11.6063C213.451 11.5096 212.802 11.6679 212.282 12.0468C211.836 12.4738 211.575 13.059 211.555 13.6765V14.0289L216.795 14.4473V15.8568L211.555 15.4384L211.005 22.4418L209.068 22.2876L209.618 15.2842Z" fill="#30312F"/>
<path d="M225.865 17.1561C226.257 17.5202 226.526 17.9974 226.635 18.5216C226.778 19.0928 226.778 19.6902 226.635 20.2614H224.874C225.012 19.7146 224.95 19.1363 224.698 18.6317C224.574 18.3955 224.402 18.1875 224.194 18.0207C223.985 17.854 223.745 17.7321 223.487 17.6627C222.964 17.4986 222.403 17.4986 221.88 17.6627C221.352 17.8447 220.886 18.1732 220.537 18.6097C220.1 19.1563 219.778 19.7855 219.591 20.4596L218.424 23.5869L216.597 23.0143L219.194 14.9758L220.801 15.5044L220.493 17.1782C220.972 16.6839 221.584 16.3395 222.254 16.1871C222.921 15.9789 223.635 15.9789 224.302 16.1871C224.906 16.3497 225.45 16.6867 225.865 17.1561Z" fill="#30312F"/>
<path d="M229.629 18.8518L231.346 19.7327L227.494 27.2207L225.755 26.3397L229.629 18.8518ZM230.51 17.2882C230.441 17.1361 230.405 16.9708 230.405 16.8037C230.405 16.6365 230.441 16.4712 230.51 16.3191C230.598 16.1382 230.736 15.9856 230.906 15.8787C231.083 15.7642 231.29 15.703 231.501 15.7025C231.731 15.6899 231.96 15.7434 232.161 15.8567C232.47 15.9952 232.715 16.2476 232.843 16.5614C232.908 16.7071 232.941 16.8646 232.941 17.0239C232.941 17.1832 232.908 17.3407 232.843 17.4864C232.747 17.6868 232.604 17.8606 232.425 17.9929C232.244 18.0972 232.04 18.1575 231.831 18.1691C231.6 18.1629 231.374 18.1026 231.17 17.9929C231.015 17.932 230.875 17.8371 230.761 17.7152C230.646 17.5933 230.561 17.4474 230.51 17.2882Z" fill="#30312F"/>
<path d="M231.213 29.0928C230.725 28.2654 230.467 27.3227 230.465 26.362C230.458 25.4853 230.762 24.6346 231.324 23.9614C231.834 23.3176 232.548 22.867 233.349 22.6841C234.221 22.4452 235.141 22.4452 236.013 22.6841C237.036 23.0013 237.986 23.5177 238.808 24.2037C239.629 24.8452 240.31 25.647 240.812 26.5602C241.255 27.3457 241.483 28.2347 241.472 29.1369C241.437 29.9419 241.144 30.7143 240.636 31.3392L240.437 31.8898C240.353 31.9959 240.257 32.092 240.151 32.1761L232.6 26.0757C232.38 26.4955 232.325 26.9827 232.446 27.4411C232.569 28.0342 232.825 28.5915 233.195 29.0708C233.615 29.6549 234.111 30.1807 234.67 30.6345C235.393 31.2238 236.202 31.6992 237.069 32.044C237.761 32.3514 238.514 32.4946 239.271 32.4624V33.96C238.677 33.9976 238.08 33.9305 237.51 33.7618C236.065 33.3633 234.716 32.6739 233.547 31.7356C232.607 31.0126 231.815 30.1153 231.213 29.0928ZM239.425 29.7535C239.681 29.356 239.776 28.8752 239.689 28.4101C239.604 27.8662 239.401 27.3475 239.095 26.8905C238.733 26.3461 238.287 25.8629 237.774 25.459C237.29 25.0557 236.739 24.7424 236.145 24.534C235.631 24.3467 235.083 24.2716 234.538 24.3138C234.089 24.3618 233.667 24.5463 233.327 24.8424L239.425 29.7535Z" fill="#30312F"/>
<path d="M250.3 38.3204C250.44 39.0663 250.34 39.8373 250.014 40.5227C249.685 41.2304 249.157 41.8272 248.495 42.2405L244.709 44.7952L243.608 43.1875L247.196 40.7649C247.546 40.5616 247.844 40.2815 248.069 39.9457C248.294 39.6099 248.44 39.2273 248.495 38.8269C248.549 37.9313 248.275 37.0469 247.725 36.3383C247.325 35.695 246.783 35.1524 246.14 34.7526C245.588 34.4114 244.948 34.2436 244.3 34.2711C243.652 34.2986 243.028 34.5201 242.507 34.9067L239.425 36.9769L238.347 35.3913L245.325 30.6562L246.294 32.0878L244.885 33.299C245.701 33.2525 246.511 33.4685 247.196 33.9157C248.038 34.4334 248.753 35.1333 249.288 35.9639C249.799 36.6626 250.145 37.4684 250.3 38.3204Z" fill="#30312F"/>
<path d="M245.831 47.3061C245.91 46.4317 246.239 45.5985 246.778 44.9056C247.299 44.2314 248.026 43.7446 248.847 43.5181C249.655 43.2541 250.527 43.2541 251.335 43.5181C252.201 43.7882 252.967 44.3094 253.536 45.0157C254.202 45.8302 254.69 46.7756 254.967 47.7906C255.264 48.7443 255.361 49.7488 255.253 50.7417C255.153 51.5591 254.808 52.327 254.263 52.9441L259.7 51.3143L260.251 53.1643L248.539 56.688L248.055 55.1024L249.772 54.3315C248.961 54.1441 248.239 53.6857 247.724 53.0322C247.056 52.2608 246.567 51.3506 246.294 50.3673C245.948 49.3851 245.792 48.3465 245.831 47.3061ZM248.825 52.5036C249.193 53.0192 249.695 53.4232 250.278 53.6708C250.801 53.8792 251.384 53.8792 251.907 53.6708C252.458 53.5229 252.936 53.1782 253.25 52.7018C253.595 52.1777 253.786 51.5672 253.8 50.94C253.829 50.1933 253.725 49.4475 253.492 48.7376C253.308 47.9421 252.964 47.1927 252.48 46.5353C252.121 46.0205 251.625 45.6162 251.049 45.3681C250.514 45.18 249.932 45.18 249.398 45.3681C248.856 45.5244 248.388 45.8678 248.077 46.3371C247.728 46.8525 247.53 47.455 247.504 48.0769C247.463 49.6486 247.926 51.1923 248.825 52.4816V52.5036Z" fill="#30312F"/>
<path d="M260.251 56.7539L260.427 58.6699L248.231 59.7491L248.055 57.833L260.251 56.7539Z" fill="#30312F"/>
<path d="M244.951 62.8324C245.173 62.0649 245.483 61.3258 245.876 60.6301C246.136 60.1337 246.462 59.6745 246.844 59.2646L248.165 60.2557C247.802 60.6548 247.491 61.0989 247.241 61.5771C246.914 62.1158 246.655 62.6928 246.47 63.2949C246.246 63.9435 246.098 64.6161 246.03 65.299C245.928 66.1164 245.981 66.9455 246.184 67.7436C246.326 68.3961 246.655 68.993 247.13 69.4614C247.565 69.8998 248.144 70.1658 248.76 70.2102H249.398C248.76 69.7332 248.271 69.0837 247.989 68.3382C247.661 67.4831 247.54 66.5623 247.637 65.6514C247.72 64.7377 248.014 63.8558 248.495 63.0747C248.939 62.3889 249.563 61.8399 250.301 61.489C251.085 61.1305 251.953 60.9934 252.81 61.0926L257.081 61.533L256.883 63.4711L252.81 63.0527C252.205 62.9825 251.592 63.0658 251.027 63.2949C250.495 63.5366 250.044 63.9265 249.728 64.4181C249.387 64.9553 249.183 65.5677 249.134 66.202C249.03 66.9448 249.114 67.7017 249.376 68.4043C249.614 69.0166 250.028 69.5451 250.565 69.9239C251.143 70.3303 251.82 70.5737 252.524 70.6287L256.134 70.981L255.936 72.8971L248.539 72.1483C247.635 72.0852 246.779 71.7118 246.118 71.0912C245.406 70.4443 244.9 69.6015 244.665 68.6686C244.356 67.5434 244.274 66.3681 244.423 65.2109C244.506 64.4002 244.683 63.602 244.951 62.8324Z" fill="#30312F"/>
<path d="M246.139 84.0629C246.417 83.8914 246.737 83.8005 247.063 83.8005C247.39 83.8005 247.71 83.8914 247.988 84.0629C248.267 84.2321 248.501 84.4663 248.67 84.7456C248.824 85.0284 248.893 85.3496 248.869 85.6706C248.858 86.0091 248.751 86.3376 248.56 86.6176C248.398 86.9078 248.163 87.1506 247.878 87.3223C247.603 87.479 247.292 87.5624 246.975 87.5646C246.638 87.5654 246.309 87.4657 246.029 87.2783C245.743 87.1074 245.508 86.8643 245.346 86.5735C245.203 86.2948 245.135 85.9836 245.148 85.6706C245.162 85.3426 245.26 85.0239 245.434 84.7456C245.61 84.4637 245.852 84.2293 246.139 84.0629Z" fill="#30312F"/>
<path d="M178.336 102.1C177.811 101.508 177.381 100.84 177.059 100.118C176.789 99.5484 176.675 98.9178 176.729 98.29H178.204C178.177 98.7836 178.275 99.2761 178.49 99.7215C178.744 100.299 179.085 100.834 179.502 101.307C179.974 101.851 180.515 102.332 181.109 102.739C181.587 103.067 182.096 103.347 182.628 103.576C183.011 103.751 183.42 103.862 183.839 103.906C183.976 103.92 184.115 103.9 184.242 103.846C184.369 103.792 184.481 103.706 184.566 103.598C184.643 103.446 184.674 103.276 184.654 103.107C184.634 102.939 184.565 102.78 184.456 102.651C184.099 102.162 183.677 101.725 183.201 101.351L181.308 99.7435C180.541 99.1439 179.904 98.3946 179.436 97.5412C179.262 97.2459 179.182 96.9047 179.205 96.5626C179.229 96.2206 179.355 95.8937 179.568 95.6251C179.715 95.3942 179.908 95.1966 180.136 95.0449C180.363 94.8931 180.62 94.7907 180.889 94.7442C181.527 94.663 182.175 94.7309 182.782 94.9424C183.571 95.2191 184.313 95.6125 184.984 96.1097C185.539 96.4823 186.049 96.9184 186.503 97.409C186.918 97.8686 187.273 98.3792 187.56 98.9286C187.805 99.3749 187.941 99.8731 187.956 100.382L186.481 100.58C186.393 99.9512 186.151 99.3535 185.776 98.8405C185.049 97.788 184.032 96.9693 182.849 96.4841C182.514 96.3365 182.157 96.2471 181.792 96.2198C181.666 96.206 181.54 96.2251 181.424 96.2754C181.308 96.3256 181.207 96.4051 181.131 96.5061C181.04 96.6223 180.991 96.7658 180.991 96.9135C180.991 97.0612 181.04 97.2047 181.131 97.3209C181.47 97.7705 181.862 98.1773 182.298 98.5322L184.257 100.206C185.035 100.813 185.692 101.56 186.195 102.408C186.369 102.724 186.448 103.084 186.421 103.444C186.393 103.804 186.261 104.149 186.041 104.434C185.886 104.672 185.682 104.874 185.443 105.025C185.203 105.177 184.934 105.276 184.654 105.315C183.973 105.418 183.277 105.35 182.628 105.117C181.842 104.828 181.1 104.427 180.427 103.928C179.646 103.421 178.942 102.806 178.336 102.1Z" fill="#30312F"/>
<path d="M198.787 102.915C199.33 103.422 199.707 104.083 199.865 104.809C200.022 105.541 199.977 106.303 199.733 107.011L198.302 111.416L196.475 110.821L197.818 106.703C197.965 106.324 198.023 105.917 197.989 105.513C197.955 105.108 197.828 104.717 197.62 104.368C197.1 103.61 196.314 103.075 195.418 102.871C194.713 102.622 193.961 102.532 193.217 102.607C192.589 102.674 191.994 102.918 191.5 103.311C190.991 103.749 190.617 104.322 190.421 104.963L189.276 108.487L187.449 107.892L190.047 99.8757L191.698 100.404L191.324 102.232C191.939 101.692 192.71 101.36 193.525 101.285C194.5 101.202 195.482 101.322 196.409 101.638C197.288 101.878 198.101 102.315 198.787 102.915Z" fill="#30312F"/>
<path d="M203.762 112.231C203.187 112.112 202.66 111.829 202.243 111.416C202.07 111.238 201.935 111.028 201.844 110.797C201.753 110.567 201.709 110.32 201.714 110.072C201.721 109.65 201.85 109.239 202.084 108.887C202.318 108.536 202.648 108.259 203.035 108.09C204.236 107.49 205.547 107.145 206.888 107.077L210.806 106.725C210.985 106.714 211.155 106.644 211.291 106.527C211.348 106.488 211.395 106.436 211.425 106.374C211.456 106.312 211.471 106.243 211.467 106.174C211.452 106.034 211.404 105.899 211.328 105.781C211.251 105.662 211.148 105.563 211.026 105.492C210.649 105.255 210.231 105.091 209.794 105.007C209.222 104.886 208.638 104.835 208.054 104.853C207.312 104.848 206.573 104.937 205.853 105.117C205.199 105.274 204.564 105.503 203.96 105.8C203.459 106.035 202.999 106.347 202.595 106.725L201.692 105.558C202.138 105.103 202.659 104.731 203.233 104.457C203.932 104.108 204.671 103.849 205.435 103.686C206.249 103.484 207.084 103.381 207.922 103.377C208.835 103.35 209.747 103.454 210.63 103.686C211.344 103.861 212.007 104.2 212.567 104.677C212.812 104.886 213.008 105.146 213.141 105.439C213.274 105.732 213.341 106.051 213.338 106.373V110.05C213.332 110.156 213.349 110.262 213.387 110.36C213.425 110.459 213.483 110.549 213.558 110.623C213.723 110.764 213.936 110.835 214.152 110.821C214.377 110.821 214.598 110.76 214.791 110.645C214.979 110.548 215.138 110.404 215.253 110.227L216.046 111.284C215.812 111.613 215.492 111.873 215.121 112.033C214.688 112.238 214.214 112.343 213.734 112.341C213.336 112.349 212.94 112.281 212.567 112.143C212.252 111.993 211.973 111.775 211.753 111.504C211.545 111.213 211.423 110.87 211.401 110.513V110.227C211.07 110.695 210.642 111.085 210.146 111.372C209.57 111.723 208.948 111.99 208.297 112.165C206.763 112.532 205.164 112.532 203.63 112.165L203.762 112.231ZM209.045 110.601C209.706 110.385 210.313 110.032 210.828 109.566C211.03 109.395 211.194 109.182 211.307 108.943C211.421 108.704 211.483 108.443 211.489 108.178V107.936L207.086 108.355C206.201 108.402 205.326 108.573 204.488 108.861C203.916 109.103 203.652 109.412 203.652 109.808C203.658 110.02 203.732 110.224 203.863 110.39C203.994 110.557 204.174 110.677 204.378 110.733C205.087 110.967 205.834 111.064 206.58 111.019C207.418 111.005 208.249 110.864 209.045 110.601Z" fill="#30312F"/>
<path d="M220.779 110.403C219.876 110.35 219.003 110.061 218.247 109.566C217.564 109.054 217.055 108.344 216.791 107.531C216.527 106.719 216.52 105.845 216.772 105.029C217.066 104.169 217.592 103.407 218.291 102.827C219.123 102.137 220.079 101.613 221.109 101.285C221.904 101.012 222.735 100.856 223.575 100.823C224.321 100.784 225.068 100.889 225.776 101.131C226.365 101.346 226.888 101.71 227.295 102.188L225.754 103.245C225.354 102.767 224.787 102.46 224.169 102.386C223.426 102.286 222.67 102.369 221.968 102.629C221.238 102.849 220.558 103.208 219.964 103.686C219.47 104.077 219.09 104.594 218.864 105.183C218.68 105.738 218.68 106.337 218.862 106.892C219.045 107.447 219.4 107.928 219.876 108.267C220.397 108.599 220.998 108.782 221.615 108.795C222.365 108.819 223.112 108.7 223.817 108.443C224.473 108.238 225.09 107.925 225.644 107.518C226.127 107.148 226.537 106.693 226.855 106.174C227.119 105.681 227.248 105.126 227.229 104.567L229.1 104.434C229.085 105.212 228.865 105.972 228.462 106.637C228.002 107.382 227.405 108.033 226.701 108.553C225.899 109.123 225.016 109.568 224.081 109.874C223.028 110.276 221.904 110.456 220.779 110.403Z" fill="#30312F"/>
<path d="M225.666 95.9775L227.251 94.8543L231.478 100.889L234.031 94.7442L236.475 93.0264L234.031 98.9066L241.45 99.8316L239.381 101.285L233.393 100.514L232.534 102.452L234.252 104.897L232.689 105.998L225.666 95.9775Z" fill="#30312F"/>
<path d="M194.207 40.2364C190.157 40.5447 181.923 42.8131 182.936 54.6176C183.949 66.0036 199.007 90.4275 212.303 91.0221C220.933 91.3965 232.424 70.166 233.459 55.983C234.471 42.3947 229.232 38.3644 222.232 38.2323C204.62 38.1222 202.243 53.6486 211.048 61.1805C219.854 68.7125 211.665 38.8709 194.207 40.2364Z" stroke="#30312F" stroke-width="1.7" stroke-miterlimit="10"/>
</g>
<g clip-path="url(#clip2)">
<path d="M62.12 124.24C96.4279 124.24 124.24 96.4279 124.24 62.12C124.24 27.8121 96.4279 0 62.12 0C27.8121 0 0 27.8121 0 62.12C0 96.4279 27.8121 124.24 62.12 124.24Z" fill="#F6F4EA"/>
<path d="M19.1937 54.9915C18.8052 55.5648 18.2701 56.0235 17.6441 56.3198C17.0565 56.5913 16.4041 56.691 15.7623 56.6076V54.3938C16.1508 54.4606 16.5504 54.4145 16.9135 54.2609C17.2777 54.1062 17.5974 53.8626 17.8433 53.5525C18.1147 53.2086 18.304 52.8073 18.3968 52.3792C18.4938 51.9492 18.4938 51.503 18.3968 51.073C18.3225 50.6919 18.1348 50.342 17.8583 50.0694C17.5817 49.7968 17.2293 49.6142 16.8471 49.5455C16.479 49.434 16.0861 49.434 15.718 49.5455C15.3749 49.6624 15.0692 49.8687 14.8325 50.1432C14.569 50.4725 14.3869 50.8593 14.3012 51.2723C14.2236 51.6446 14.2236 52.029 14.3012 52.4013C14.3271 52.7322 14.4504 53.048 14.6554 53.309L13.9027 54.8587L8.7002 53.2647L10.3384 47.0217L11.9324 47.3981L10.8476 51.9586L13.2385 52.6891C13.0983 52.3754 13.023 52.0365 13.0172 51.6929C12.9623 51.2815 12.9623 50.8646 13.0172 50.4531C13.1623 49.7505 13.4821 49.0958 13.947 48.5493C14.3457 48.063 14.876 47.7018 15.4745 47.5088C16.1193 47.3316 16.8 47.3316 17.4448 47.5088C18.1379 47.6586 18.77 48.013 19.2594 48.5261C19.7489 49.0392 20.073 49.6874 20.1899 50.3867C20.3636 51.1892 20.3636 52.0195 20.1899 52.8219C20.0054 53.6042 19.6668 54.3417 19.1937 54.9915Z" fill="#30312F"/>
<path d="M21.9173 46.114C21.42 46.5967 20.7997 46.9336 20.1241 47.088C19.5034 47.2765 18.8408 47.2765 18.2202 47.088L18.7294 44.8742C19.0928 45.0266 19.492 45.0727 19.8806 45.007C20.272 44.9428 20.639 44.7746 20.9432 44.52C21.2844 44.2471 21.5573 43.8984 21.7402 43.5016C21.9456 43.1039 22.0591 42.6651 22.0723 42.2176C22.0831 41.8428 21.9829 41.4731 21.7844 41.155C21.5717 40.8208 21.2631 40.5584 20.8989 40.4023C20.5582 40.2257 20.1745 40.1489 19.792 40.1809C19.4297 40.2201 19.0852 40.358 18.7958 40.5794C18.4771 40.8455 18.2202 41.1779 18.0431 41.5535C17.8762 41.9016 17.7713 42.2762 17.7331 42.6604C17.6949 42.9883 17.7566 43.3201 17.9103 43.6123L16.8476 44.9628L12.0879 42.3062L14.9216 36.4617L16.4048 37.1701L14.3681 41.3764L16.582 42.594C16.5152 42.2578 16.5152 41.9118 16.582 41.5756C16.6566 41.1629 16.783 40.7612 16.9583 40.3801C17.2564 39.7374 17.7043 39.1756 18.2645 38.7419C18.7449 38.3372 19.3422 38.0967 19.9691 38.0556C20.6349 38.0185 21.2988 38.1559 21.8951 38.4541C22.5411 38.7457 23.0846 39.2244 23.4556 39.8282C23.8266 40.4321 24.0079 41.1333 23.9761 41.8413C23.9404 42.666 23.7291 43.4736 23.3563 44.2101C23.0095 44.935 22.5201 45.5825 21.9173 46.114Z" fill="#30312F"/>
<path d="M21.4076 35.3107C20.9315 35.5091 20.4057 35.5555 19.9022 35.4435C19.3878 35.321 18.9098 35.0782 18.5075 34.7351C18.0883 34.3888 17.7677 33.9384 17.5777 33.429C17.4338 32.9375 17.4338 32.415 17.5777 31.9235C17.6777 31.3991 17.9145 30.9103 18.2639 30.5067C18.607 30.0892 19.0592 29.775 19.5701 29.599C20.0438 29.4233 20.5559 29.3774 21.0534 29.4662C21.5861 29.5868 22.0806 29.8379 22.4924 30.1968C22.9025 30.5375 23.2156 30.9804 23.4 31.4808C23.5758 31.9545 23.6216 32.4666 23.5329 32.9641C23.4153 33.4869 23.1722 33.9732 22.8244 34.3809C22.4526 34.822 21.9602 35.1451 21.4076 35.3107ZM22.0717 32.7205C22.1373 32.4589 22.1373 32.1852 22.0717 31.9235C21.9646 31.6482 21.7894 31.4045 21.5625 31.2151C21.3395 31.0228 21.0739 30.8862 20.7877 30.8166C20.4928 30.7607 20.1881 30.7868 19.907 30.8922C19.6259 30.9976 19.3792 31.1783 19.1938 31.4144C19.0005 31.6452 18.864 31.9182 18.7953 32.2113C18.7287 32.4803 18.7287 32.7615 18.7953 33.0305C18.9077 33.3093 19.0818 33.559 19.3045 33.761C19.5314 33.9427 19.7962 34.0713 20.0793 34.1374C20.3469 34.2143 20.6308 34.2143 20.8984 34.1374C21.1779 34.0379 21.4235 33.8614 21.6068 33.6282C21.8871 33.3956 22.0818 33.0762 22.1603 32.7205H22.0717ZM26.2116 37.7238L23.0237 24.7729L23.5993 24.6179L26.8757 37.6574L26.2116 37.7238ZM30.3514 32.8976C29.8704 33.0752 29.3507 33.1211 28.846 33.0305C28.3214 32.9182 27.8338 32.6744 27.4292 32.322C27.0117 31.979 26.6975 31.5268 26.5215 31.0159C26.3439 30.5349 26.2981 30.0152 26.3887 29.5105C26.5009 28.9858 26.7447 28.4982 27.0971 28.0936C27.4379 27.6835 27.8808 27.3704 28.3811 27.186C28.862 27.0055 29.3845 26.9671 29.8865 27.0753C30.4125 27.1861 30.9026 27.4263 31.3123 27.7742C31.7221 28.1221 32.0386 28.5667 32.2332 29.0677C32.3771 29.5592 32.3771 30.0816 32.2332 30.5731C32.1298 31.1009 31.885 31.5906 31.5248 31.99C31.2398 32.3738 30.8681 32.6848 30.44 32.8976H30.3514ZM30.9935 30.3296C31.0813 30.0636 31.0813 29.7765 30.9935 29.5105C30.8943 29.2366 30.7266 28.9927 30.5064 28.8021C30.2795 28.6071 30.0041 28.4771 29.7094 28.4257C29.4418 28.3488 29.1579 28.3488 28.8903 28.4257C28.6233 28.5424 28.3866 28.7189 28.1986 28.9415C28.0105 29.1641 27.876 29.4269 27.8055 29.7097C27.7177 29.9757 27.7177 30.2629 27.8055 30.5288C27.905 30.8083 28.0816 31.0539 28.3147 31.2373C28.5378 31.4296 28.8034 31.5662 29.0896 31.6357C29.3555 31.7236 29.6427 31.7236 29.9087 31.6357C30.185 31.5198 30.4284 31.3373 30.6171 31.1044C30.8467 30.8989 31.0087 30.6288 31.082 30.3296H30.9935Z" fill="#30312F"/>
<path d="M38.8754 25.6803C37.8662 25.7152 36.8679 25.4618 35.9975 24.9498C35.1137 24.4238 34.3992 23.6555 33.9386 22.7359C33.4211 21.82 33.1754 20.7757 33.2302 19.7251C33.2863 18.7151 33.6407 17.7443 34.2485 16.9357C34.9419 16.0373 35.821 15.2992 36.8259 14.772C37.8308 14.2447 38.9377 13.9407 40.0709 13.8806C41.0802 13.8457 42.0785 14.0991 42.9489 14.6112C43.8269 15.1511 44.5452 15.9153 45.0299 16.825C45.5278 17.7396 45.7652 18.7734 45.7162 19.8137C45.6452 20.831 45.2841 21.8068 44.6757 22.6252C43.9877 23.5223 43.1123 24.2584 42.1105 24.7822C41.1087 25.306 40.0047 25.605 38.8754 25.6582V25.6803ZM42.9489 21.7618C43.331 21.2134 43.5532 20.5696 43.5909 19.9022C43.6118 19.1894 43.4357 18.4846 43.0817 17.8655C42.7714 17.2352 42.2973 16.7 41.7091 16.3158C41.1386 15.9572 40.4791 15.7655 39.8052 15.7624C39.0305 15.764 38.2688 15.962 37.5914 16.338C36.9238 16.6766 36.347 17.17 35.9089 17.777C35.5139 18.3271 35.2905 18.9818 35.2669 19.6587C35.2351 20.3628 35.404 21.0615 35.7539 21.6733C36.0716 22.3114 36.5529 22.8538 37.1487 23.2451C37.7228 23.5904 38.3827 23.7669 39.0525 23.7543C39.8268 23.7489 40.5875 23.5511 41.2664 23.1787C41.9344 22.8508 42.512 22.3643 42.9489 21.7618Z" fill="#30312F"/>
<path d="M45.5156 11.4897L53.2419 9.56372L53.6847 11.3348L47.973 12.5967L48.6593 15.3639L53.419 14.1906L53.8175 15.8067L49.0577 16.98L50.0761 21.142L47.973 21.6734L45.5156 11.4897Z" fill="#30312F"/>
<path d="M60.6583 8.72241L66.1929 9.05449C66.9629 9.07138 67.7193 9.2605 68.4067 9.60795C68.9804 9.88364 69.4529 10.3328 69.7571 10.892C70.0716 11.4505 70.2105 12.0908 70.1556 12.7294C70.1398 13.3634 69.9227 13.9759 69.5357 14.4784C69.1564 15.0002 68.6333 15.4002 68.0303 15.6296C67.3222 15.8867 66.568 15.9923 65.8165 15.9395L62.4293 15.7402L62.208 19.4373L59.9941 19.3266L60.6583 8.72241ZM65.573 14.257C65.9908 14.285 66.4103 14.24 66.8127 14.1241C67.1382 14.009 67.4229 13.8012 67.6318 13.5264C67.8489 13.2638 67.9734 12.9371 67.9861 12.5966C68.0062 12.3439 67.9666 12.09 67.8704 11.8554C67.7743 11.6208 67.6243 11.4121 67.4326 11.2462C66.9693 10.8683 66.3922 10.6577 65.7944 10.6484L62.695 10.4713L62.4958 14.0799L65.573 14.257Z" fill="#30312F"/>
<path d="M77.5062 22.3376C77.2928 22.1534 77.1195 21.9273 76.997 21.6734C76.8915 21.3971 76.8316 21.1055 76.8199 20.81V18.8397C76.8184 18.4978 76.7101 18.165 76.5099 17.8878C76.3471 17.6388 76.1055 17.4517 75.8237 17.3565L73.3885 16.6259L72.1708 20.5665L70.0898 19.9245L73.1892 9.78516L78.8566 11.5119C79.5575 11.7094 80.2071 12.0569 80.7605 12.5303C81.2364 12.9203 81.5963 13.4333 81.801 14.0136C81.9883 14.5739 81.9883 15.18 81.801 15.7403C81.6673 16.19 81.4198 16.5974 81.0823 16.9232C80.7449 17.249 80.329 17.4821 79.875 17.6C79.3483 17.7396 78.7997 17.7772 78.2589 17.7107C78.4632 17.8806 78.6292 18.0918 78.7459 18.3305C78.8641 18.5952 78.9245 18.882 78.923 19.1718V20.7657C78.9207 20.9346 78.9586 21.1015 79.0337 21.2528C79.1274 21.3699 79.2493 21.4613 79.3879 21.5184C79.5458 21.5724 79.7171 21.5724 79.875 21.5184C80.0558 21.458 80.2218 21.3599 80.362 21.2306L80.6498 22.4483C80.3248 22.6689 79.9538 22.8127 79.565 22.8689C79.1652 22.9683 78.7472 22.9683 78.3474 22.8689C78.0257 22.7676 77.7359 22.5845 77.5062 22.3376ZM77.0855 16.1388C77.4582 16.2134 77.8419 16.2134 78.2146 16.1388C78.5337 16.1241 78.8415 16.0163 79.1001 15.8289C79.3423 15.6355 79.5199 15.3729 79.6093 15.0762C79.709 14.797 79.709 14.492 79.6093 14.2128C79.497 13.9099 79.306 13.6424 79.0558 13.438C78.771 13.1839 78.4293 13.0017 78.0596 12.9067L74.7389 11.8883L73.7869 15.0098L77.0855 16.1388Z" fill="#30312F"/>
<path d="M82.3094 23.9757C81.774 23.1112 81.4904 22.1146 81.4902 21.0977C81.5389 20.0578 81.8535 19.0477 82.4039 18.1641C82.9542 17.2804 83.722 16.5526 84.6339 16.0502C85.5322 15.5827 86.5508 15.3975 87.5561 15.5189C88.6924 15.6407 89.7843 16.0274 90.744 16.648C91.7146 17.2215 92.5343 18.0184 93.135 18.9725C93.6864 19.8227 93.9787 20.8149 93.9762 21.8283C93.9402 22.8761 93.6187 23.8942 93.0464 24.7727C92.5359 25.7076 91.7675 26.476 90.8326 26.9865C89.9273 27.4332 88.9149 27.6173 87.9103 27.5178C86.7893 27.4041 85.7116 27.0246 84.7667 26.4109C83.7691 25.8016 82.9276 24.9677 82.3094 23.9757ZM87.7775 25.4811C88.444 25.5292 89.1108 25.3912 89.7035 25.0826C90.3209 24.7304 90.8443 24.2346 91.2297 23.6374C91.615 23.0401 91.8509 22.3589 91.9174 21.6512C91.9459 20.9755 91.7766 20.3061 91.4303 19.7252C91.0427 19.0923 90.5022 18.567 89.8585 18.1976C89.2403 17.7771 88.5229 17.5253 87.7775 17.4671C87.1037 17.416 86.429 17.554 85.8293 17.8656C85.2063 18.1997 84.6859 18.6972 84.3239 19.3045C83.9428 19.9027 83.7217 20.5888 83.6819 21.297C83.68 21.9754 83.8638 22.6415 84.2133 23.223C84.6114 23.8609 85.1584 24.3926 85.8072 24.7727C86.4109 25.1697 87.1025 25.4129 87.8218 25.4811H87.7775Z" fill="#30312F"/>
<path d="M98.4041 25.3927L95.7918 22.7582L97.0758 21.4963L103.717 28.1378L102.433 29.4218L99.9317 26.9866L93.6887 33.1853L92.1611 31.6578L98.4041 25.3927Z" fill="#30312F"/>
<path d="M105.289 30.2407L109.717 37.2143L108.278 38.1441L104.913 32.9416L102.699 34.3806L105.732 39.096L104.404 39.9373L101.371 35.244L98.9134 36.8379L102.367 42.1511L100.906 43.1031L96.3232 35.9967L105.289 30.2407Z" fill="#30312F"/>
<path d="M110.847 39.6052L111.732 41.5977L102.08 46.0253L101.194 44.0329L110.847 39.6052Z" fill="#30312F"/>
<path d="M113.082 44.343L113.747 46.9111L107.282 54.1281L115.097 52.0914L115.628 54.1281L105.378 56.8069L104.714 54.2388L111.179 46.9996L103.319 49.1249L102.788 47.0882L113.082 44.343Z" fill="#30312F"/>
<path d="M13.4814 64.7545C13.6254 64.5821 13.8032 64.4412 14.0039 64.3404C14.2046 64.2397 14.4238 64.1812 14.648 64.1688C14.8723 64.1563 15.0966 64.1901 15.3072 64.268C15.5179 64.3459 15.7102 64.4663 15.8724 64.6217C16.2141 64.9704 16.4049 65.4396 16.4037 65.9278C16.4604 66.4168 16.3255 66.9087 16.0273 67.3004C15.8899 67.4755 15.7154 67.6179 15.5163 67.7174C15.3173 67.8169 15.0986 67.8711 14.8761 67.876C14.6529 67.8991 14.4273 67.8713 14.2164 67.7946C14.0055 67.7179 13.8148 67.5943 13.6585 67.4332C13.3179 67.0909 13.12 66.6319 13.1051 66.1492C13.0494 65.6534 13.1839 65.155 13.4814 64.7545Z" fill="#30312F"/>
<path d="M20.833 72.8569L22.7147 78.0816C22.9897 78.7853 23.1032 79.5419 23.0468 80.2954C23.0161 80.9369 22.7923 81.5542 22.4048 82.0664C22.0139 82.5709 21.4824 82.9484 20.8773 83.1512C20.2782 83.3731 19.6271 83.4137 19.0051 83.268C18.3831 83.1224 17.8177 82.7969 17.3794 82.3321C16.8558 81.7933 16.4621 81.1422 16.2282 80.4282L15.077 77.2403L11.5792 78.48L10.8486 76.4655L20.833 72.8569ZM17.6672 79.4984C17.8138 79.8912 18.0231 80.2575 18.2871 80.5832C18.517 80.8406 18.8171 81.0253 19.1505 81.1145C19.4752 81.2137 19.822 81.2137 20.1467 81.1145C20.3869 81.0344 20.6045 80.8983 20.7816 80.7173C20.9587 80.5364 21.0901 80.3158 21.1651 80.074C21.3608 79.515 21.3608 78.9062 21.1651 78.3472L20.1024 75.425L16.7153 76.6426L17.6672 79.4984Z" fill="#30312F"/>
<path d="M18.2862 91.9181C18.091 90.9332 18.1754 89.9132 18.5298 88.9737C18.9368 88.0134 19.5943 87.18 20.4336 86.5607C21.2518 85.9156 22.2326 85.5095 23.2673 85.3873C24.2723 85.278 25.2874 85.4626 26.1896 85.9187C27.2033 86.4511 28.0817 87.2083 28.7576 88.1325C29.4896 89.0203 30.005 90.0662 30.263 91.1876C30.4668 92.1811 30.3744 93.2126 29.9974 94.1541C29.7224 94.8816 29.2984 95.5435 28.7525 96.0974C28.2066 96.6514 27.551 97.085 26.8276 97.3706C26.1042 97.6562 25.3291 97.7874 24.5521 97.7558C23.775 97.7242 23.0132 97.5304 22.3154 97.187C21.3236 96.6481 20.4587 95.9029 19.7789 95.0017C19.0992 94.1005 18.6204 93.0642 18.3748 91.9624L18.2862 91.9181ZM22.7139 95.2831C23.3101 95.5782 23.9793 95.6936 24.6399 95.6152C25.3446 95.523 26.0107 95.2397 26.566 94.7961C27.1443 94.3812 27.5964 93.8141 27.8721 93.1579C28.1338 92.5438 28.2107 91.8668 28.0935 91.2097C27.969 90.4821 27.6646 89.7972 27.208 89.2173C26.7683 88.6032 26.1824 88.1086 25.5033 87.7783C24.8958 87.4939 24.2226 87.3792 23.5552 87.4462C22.8584 87.5571 22.1995 87.8371 21.636 88.2616C21.0726 88.6861 20.6217 89.2423 20.323 89.8814C20.0573 90.5103 19.9878 91.2048 20.1237 91.8738C20.2547 92.6035 20.5668 93.2886 21.0314 93.8663C21.4948 94.4874 22.1132 94.9759 22.8246 95.2831H22.7139Z" fill="#30312F"/>
<path d="M32.6097 94.3313L34.5136 95.5046L32.2998 104.36L38.9413 98.294L41.3986 99.7773L39.1184 108.345L45.7598 102.412L47.6637 103.585L39.1405 110.802L36.6832 109.297L39.1184 100.685L32.4769 106.684L30.0195 105.201L32.6097 94.3313Z" fill="#30312F"/>
<path d="M49.7005 103.43L57.8252 105.112L57.471 106.795L51.4051 105.555L50.8738 108.168L56.3641 109.274L56.0542 110.824L50.5639 109.695L49.9883 112.573L56.187 113.835L55.8549 115.517L47.5752 113.835L49.7005 103.43Z" fill="#30312F"/>
<path d="M68.1635 115.54C67.8997 115.432 67.6591 115.274 67.4551 115.075C67.2602 114.859 67.1031 114.612 66.9902 114.344L66.2154 112.529C66.0939 112.219 65.8866 111.95 65.6176 111.754C65.3631 111.583 65.0606 111.498 64.7542 111.511L62.2305 111.665L62.474 115.783L60.2602 115.916L59.6182 105.312L65.5291 104.958C66.2792 104.891 67.0348 104.989 67.7429 105.245C68.3157 105.441 68.822 105.794 69.204 106.264C69.5819 106.727 69.7925 107.304 69.8018 107.902C69.8457 108.366 69.7615 108.833 69.5582 109.252C69.3578 109.683 69.044 110.05 68.6506 110.315C68.2156 110.637 67.7177 110.863 67.1894 110.979C67.4395 111.068 67.6665 111.212 67.8536 111.4C68.0681 111.6 68.2281 111.851 68.3185 112.13L68.9384 113.592C68.9897 113.746 69.0814 113.883 69.204 113.99C69.2587 114.044 69.3254 114.084 69.3984 114.107C69.4715 114.13 69.549 114.135 69.6247 114.123C69.7081 114.121 69.7903 114.103 69.8664 114.068C69.9424 114.034 70.0108 113.985 70.0674 113.924C70.215 113.802 70.3357 113.651 70.4216 113.481L71.1301 114.521C70.9001 114.846 70.5966 115.111 70.2445 115.296C69.8818 115.493 69.4825 115.614 69.0712 115.65C68.7642 115.677 68.4551 115.639 68.1635 115.54ZM65.684 109.872C66.0598 109.858 66.4288 109.767 66.7688 109.607C67.0566 109.468 67.3013 109.254 67.4772 108.987C67.6551 108.728 67.7337 108.413 67.6986 108.101C67.6799 107.81 67.5716 107.532 67.3887 107.304C67.165 107.071 66.893 106.89 66.5917 106.773C66.2384 106.641 65.8607 106.588 65.4848 106.618L62.0091 106.839L62.2083 110.094L65.684 109.872Z" fill="#30312F"/>
<path d="M83.0405 111.577C82.762 111.561 82.4903 111.485 82.2435 111.355C81.9859 111.21 81.7601 111.014 81.5794 110.78L80.3175 109.274C80.1112 109.002 79.8248 108.8 79.4984 108.699C79.2099 108.61 78.9013 108.61 78.6128 108.699L76.244 109.584L77.6609 113.459L75.602 114.211L71.9492 104.249L77.5059 102.212C78.2074 101.928 78.9645 101.806 79.7197 101.858C80.3347 101.883 80.9315 102.075 81.4465 102.412C81.927 102.76 82.2899 103.246 82.487 103.806C82.6569 104.235 82.7104 104.701 82.642 105.157C82.567 105.628 82.3684 106.071 82.0664 106.441C81.7413 106.878 81.326 107.24 80.8488 107.503C81.1203 107.519 81.3849 107.594 81.6236 107.725C81.8814 107.851 82.1024 108.042 82.2656 108.278L83.284 109.518C83.3941 109.642 83.5301 109.74 83.6825 109.806C83.7477 109.839 83.8197 109.856 83.8928 109.856C83.9659 109.856 84.038 109.839 84.1031 109.806C84.2613 109.75 84.3946 109.64 84.4795 109.496C84.5888 109.336 84.6642 109.155 84.7009 108.964L85.6528 109.761C85.5458 110.141 85.3395 110.485 85.0551 110.758C84.7663 111.059 84.4095 111.287 84.0146 111.422C83.7057 111.546 83.3727 111.599 83.0405 111.577ZM78.967 106.906C79.331 106.779 79.6632 106.575 79.9411 106.308C80.1775 106.1 80.3534 105.832 80.4503 105.533C80.537 105.237 80.537 104.922 80.4503 104.625C80.3521 104.345 80.1657 104.104 79.919 103.939C79.6457 103.768 79.3334 103.669 79.0113 103.651C78.632 103.633 78.2535 103.701 77.9044 103.851L74.6279 105.046L75.757 108.101L78.967 106.906Z" fill="#30312F"/>
<path d="M96.1683 103.497C95.8919 103.563 95.6035 103.563 95.3271 103.497C95.0428 103.426 94.7732 103.306 94.5301 103.142L92.8918 102.058C92.6121 101.863 92.2809 101.755 91.9399 101.748C91.6374 101.738 91.3406 101.832 91.0987 102.013L89.0619 103.541L91.5414 106.839L89.7925 108.146L83.3945 99.6667L88.1321 96.1024C88.7088 95.654 89.3721 95.3299 90.0803 95.1505C90.6664 94.9837 91.2874 94.9837 91.8735 95.1505C92.4414 95.3437 92.936 95.7069 93.2903 96.191C93.5747 96.5579 93.7578 96.993 93.8216 97.4528C93.8818 97.918 93.8208 98.3908 93.6445 98.8254C93.4544 99.3375 93.1605 99.8049 92.7811 100.198C93.0439 100.142 93.3154 100.142 93.5781 100.198C93.8631 100.246 94.1304 100.368 94.353 100.552L95.6813 101.438C95.8192 101.534 95.9789 101.595 96.1462 101.615C96.2216 101.623 96.2979 101.615 96.3703 101.592C96.4426 101.569 96.5095 101.532 96.5668 101.482C96.6894 101.379 96.7749 101.239 96.8103 101.084C96.8539 100.894 96.8539 100.697 96.8103 100.508L97.9394 100.995C97.939 101.389 97.84 101.777 97.6516 102.124C97.4786 102.503 97.2024 102.825 96.8546 103.054C96.6573 103.245 96.4241 103.396 96.1683 103.497ZM90.8994 100.176C91.2073 99.9544 91.4703 99.6765 91.6742 99.3567C91.8435 99.085 91.9283 98.7691 91.9178 98.4491C91.913 98.1348 91.804 97.8311 91.6078 97.5857C91.4322 97.3493 91.183 97.1779 90.8994 97.0986C90.5945 97.0199 90.2745 97.0199 89.9696 97.0986C89.6002 97.2005 89.2543 97.3734 88.9512 97.6078L86.1618 99.6888L88.1321 102.301L90.8994 100.176Z" fill="#30312F"/>
<path d="M106.374 92.0288C106.129 92.1658 105.857 92.2489 105.577 92.2723C105.29 92.3129 105 92.3129 104.713 92.2723L102.832 91.6967C102.509 91.5854 102.158 91.5854 101.835 91.6967C101.549 91.7702 101.293 91.9331 101.105 92.1616L99.5995 94.2205L102.92 96.6778L101.614 98.4267L93.0908 92.1173L96.6772 87.2248C97.0919 86.632 97.6277 86.134 98.2491 85.7637C98.779 85.4502 99.3823 85.2822 99.998 85.2766C100.592 85.3045 101.164 85.513 101.636 85.8743C102.012 86.147 102.31 86.5134 102.5 86.937C102.697 87.3662 102.78 87.8387 102.743 88.3095C102.696 88.8497 102.546 89.3758 102.3 89.8592C102.533 89.7258 102.788 89.6358 103.053 89.5936C103.34 89.5737 103.627 89.6192 103.894 89.7264L105.422 90.1913C105.583 90.2213 105.748 90.2213 105.909 90.1913C106.061 90.162 106.196 90.0747 106.285 89.9478C106.378 89.811 106.424 89.6481 106.418 89.4829C106.449 89.2923 106.449 89.0979 106.418 88.9073L107.658 89.0623C107.736 89.4495 107.736 89.8484 107.658 90.2356C107.576 90.639 107.402 91.0179 107.149 91.3425C106.956 91.6362 106.689 91.8731 106.374 92.0288ZM100.396 90.3463C100.629 90.0453 100.795 89.6981 100.883 89.3279C100.972 89.0243 100.972 88.7017 100.883 88.3981C100.79 88.0975 100.594 87.8391 100.33 87.6675C100.101 87.476 99.8097 87.3738 99.5109 87.3797C99.1904 87.3876 98.8774 87.4792 98.6032 87.6454C98.2787 87.8432 97.9996 88.1072 97.7841 88.4202L95.7031 91.1875L98.3376 93.1357L100.396 90.3463Z" fill="#30312F"/>
<path d="M112.906 78.0374C112.698 78.2323 112.459 78.3896 112.197 78.5023C111.918 78.5938 111.628 78.646 111.334 78.6573H109.386C109.043 78.6507 108.704 78.7429 108.412 78.923C108.152 79.0792 107.956 79.3223 107.858 79.6093L106.995 82.0002L110.891 83.3728L110.139 85.4316L100.154 81.8674L102.147 76.2885C102.388 75.6011 102.764 74.9688 103.254 74.4289C103.666 73.9779 104.195 73.6486 104.781 73.477C105.157 73.3686 105.552 73.3411 105.939 73.3964C106.326 73.4517 106.697 73.5884 107.028 73.7976C107.358 74.0068 107.641 74.2837 107.856 74.61C108.072 74.9364 108.216 75.3047 108.279 75.6908C108.378 76.2249 108.378 76.7727 108.279 77.3069C108.47 77.1124 108.695 76.9547 108.943 76.842C109.214 76.7495 109.498 76.7046 109.784 76.7091H111.378C111.539 76.7468 111.705 76.7468 111.865 76.7091C111.999 76.6373 112.101 76.5192 112.153 76.3771C112.207 76.2192 112.207 76.0479 112.153 75.89C112.105 75.7021 112.014 75.5279 111.888 75.3808L113.105 75.1595C113.319 75.4924 113.448 75.8723 113.482 76.2664C113.527 76.6771 113.481 77.0926 113.349 77.484C113.234 77.6927 113.084 77.8799 112.906 78.0374ZM106.685 78.1703C106.827 77.8116 106.887 77.426 106.862 77.0412C106.855 76.7242 106.755 76.4162 106.574 76.1557C106.407 75.8969 106.158 75.702 105.866 75.6022C105.585 75.5139 105.284 75.5139 105.003 75.6022C104.695 75.6955 104.419 75.8717 104.206 76.1114C103.942 76.3884 103.746 76.7214 103.63 77.0855L102.457 80.362L105.512 81.4689L106.685 78.1703Z" fill="#30312F"/>
<path d="M110.626 66.6584C110.472 66.822 110.287 66.9523 110.082 67.0415C109.876 67.1306 109.654 67.1766 109.43 67.1766C109.206 67.1766 108.984 67.1306 108.779 67.0415C108.573 66.9523 108.388 66.822 108.235 66.6584C107.937 66.2659 107.795 65.7769 107.836 65.2859C107.866 64.8042 108.053 64.3456 108.368 63.9797C108.525 63.8196 108.716 63.6953 108.926 63.6151C109.136 63.5349 109.361 63.5007 109.585 63.5148C109.808 63.5197 110.026 63.5738 110.225 63.6734C110.424 63.7729 110.599 63.9153 110.736 64.0904C111.045 64.4698 111.195 64.9534 111.157 65.4408C111.123 65.8951 110.935 66.3243 110.626 66.6584Z" fill="#30312F"/>
<path d="M42.7051 36.0633C47.6862 32.7204 55.7002 36.0633 48.2618 51.9143" stroke="#30312F" stroke-width="1.7" stroke-linecap="round" stroke-linejoin="round"/>
<path d="M32.2773 38.8304C40.3357 35.5539 43.9885 41.5091 41.7968 50.8736" stroke="#30312F" stroke-width="1.7" stroke-linecap="round" stroke-linejoin="round"/>
<path d="M39.3174 84.3688C40.8405 84.6019 42.3829 84.6835 43.9221 84.6123C43.9221 84.6123 36.1737 66.3261 65.7062 66.9017C95.2387 67.4773 86.8261 89.04 66.7024 81.5794C46.5787 74.1188 42.3503 69.5362 43.2801 65.5291C44.2099 61.5221 48.0177 57.825 49.5674 60.703C50.8957 63.1825 43.103 69.359 36.8822 65.9055C35.5113 65.1349 34.3399 64.054 33.4618 62.7495C32.5837 61.4449 32.0232 59.9529 31.8253 58.3928C31.6273 56.8328 31.7973 55.248 32.3218 53.7655C32.8462 52.2829 33.7105 50.9438 34.8454 49.8552C39.8487 44.7634 49.988 48.5269 63.3817 55.3455C72.3477 59.7732 76.5318 62.2969 79.3212 66.1047C82.1107 69.9125 80.8488 74.628 77.9929 74.96C75.1371 75.2921 73.9638 70.8644 75.2921 65.0642C76.7532 58.6884 90.0362 28.3811 89.7926 60.1938C89.7926 78.2365 85.6971 81.5572 85.6085 84.5459C87.8917 84.2165 90.2103 84.2165 92.4935 84.5459" stroke="#30312F" stroke-width="1.7" stroke-linecap="round" stroke-linejoin="round"/>
</g>
<defs>
<clipPath id="clip0">
<rect width="124.242" height="124.242" fill="white" transform="translate(292)"/>
</clipPath>
<clipPath id="clip1">
<rect width="120.55" height="124.85" fill="white" transform="translate(148)"/>
</clipPath>
<clipPath id="clip2">
<rect width="124.24" height="124.24" fill="white"/>
</clipPath>
</defs>
</svg>
